<?xml version="1.0" encoding="UTF-8" standalone="no"?>
<svg
   xmlns:dc="http://purl.org/dc/elements/1.1/"
   xmlns:cc="http://creativecommons.org/ns#"
   xmlns:rdf="http://www.w3.org/1999/02/22-rdf-syntax-ns#"
   xmlns:svg="http://www.w3.org/2000/svg"
   xmlns="http://www.w3.org/2000/svg"
   xmlns:sodipodi="http://sodipodi.sourceforge.net/DTD/sodipodi-0.dtd"
   xmlns:inkscape="http://www.inkscape.org/namespaces/inkscape"
   width="461.81824"
   height="376.71588"
   version="1.0"
   id="svg5245"
   sodipodi:docname="troll.svg"
   inkscape:version="0.92.3 (2405546, 2018-03-11)">
  <metadata
     id="metadata5251">
    <rdf:RDF>
      <cc:Work
         rdf:about="">
        <dc:format>image/svg+xml</dc:format>
        <dc:type
           rdf:resource="http://purl.org/dc/dcmitype/StillImage" />
        <dc:title></dc:title>
      </cc:Work>
    </rdf:RDF>
  </metadata>
  <defs
     id="defs5249" />
  <sodipodi:namedview
     pagecolor="#ffffff"
     bordercolor="#666666"
     borderopacity="1"
     objecttolerance="10"
     gridtolerance="10"
     guidetolerance="10"
     inkscape:pageopacity="0"
     inkscape:pageshadow="2"
     inkscape:window-width="1323"
     inkscape:window-height="704"
     id="namedview5247"
     showgrid="false"
     fit-margin-top="0"
     fit-margin-left="0"
     fit-margin-right="0"
     fit-margin-bottom="0"
     inkscape:zoom="0.5209713"
     inkscape:cx="250.58738"
     inkscape:cy="193.76054"
     inkscape:window-x="43"
     inkscape:window-y="27"
     inkscape:window-maximized="1"
     inkscape:current-layer="svg5245" />
  <g
     id="g5243"
     transform="matrix(-1,0,0,1,512.73085,-43.544651)"
     style="stroke:#000000"
     inkscape:export-xdpi="6.6256828"
     inkscape:export-ydpi="6.6256828">
    <path
       d="m 286.757,216.624 c -1.882,-6.219 15.688,-6.755 18.466,-2.826 1.537,2.175 4.574,1.06 7.861,1.059"
       id="path5203"
       inkscape:connector-curvature="0"
       style="fill:none;stroke-width:8;stroke-linecap:round" />
    <path
       d="m 161.624,54.495 c 0.063,0.27 -35.018,18.615 -46.972,46.972 -11.889,28.205 -18.902,34.654 -28.284,40.911 -9.382,6.258 -28.925,23.486 -30.692,39.901 -1.771,16.444 -2.39,33.083 16.045,51.518 0,0 23.156,20.87 32.263,40.37 0,0 6.123,16.956 24.053,33.624 0,0 18.454,17.634 51.78,36.322 0,0 84.85,43.588 103.783,48.783 0,0 13.278,3.432 19.112,4.198 21.286,2.794 48.187,18.362 72.56,18.53 0,0 57.073,3.536 76.771,-6.06 0,0 34.85,-23.74 34.345,-44.447 0,0 2.722,-18.335 -3.535,-41.922 0,0 -4.287,-20.011 -3.485,-44.444 0.694,-21.15 2.928,-43.969 20.152,-68.693 0,0 21.466,-36.113 -1.01,-56.063 0,0 -24.613,-16.334 -26.769,-29.8 -1.235,-9.091 5.022,-15.152 -7.576,-28.536 0,0 -28.48,-31.377 -81.822,-36.113 C 328.3,54.747 324.035,51.928 296.985,50.454 269.935,48.98 183.79,42.9 161.625,54.494 Z"
       id="path5205"
       inkscape:connector-curvature="0"
       style="fill:none;stroke-width:8" />
    <path
       d="m 101.015,218.645 c 0,0 -16.912,-22.754 2.02,-47.73 13.045,-17.209 38.487,-13.096 50.508,-5.303 12.261,7.948 26.246,12.36 40.154,12.626 7.85,0.15 21.718,-3.03 35.355,-18.182 m 169.958,20.203 c 0,0 11.148,9.435 24.544,4.736 0,0 -2.6,-10.19 14.852,-12.565 19.393,-2.64 20.412,0.883 26.012,5.556"
       id="path5207"
       inkscape:connector-curvature="0"
       style="fill:none;stroke-width:8;stroke-linecap:round" />
    <path
       d="m 178.929,121.929 c 0,0 22.31,-28.141 49.107,-29.643 20.504,-1.142 -1.557,-4.279 33.571,-2.857 5.905,0.24 18.036,-0.715 25.714,3.035 m 20.536,254.465 H 382.5 M 176.071,310.5 c 0,0 4.741,0.167 12.414,4.796 22.823,13.77 77.715,37.552 111.634,43.19 8.34,1.371 37.405,-1.027 47.198,1.891 2.815,1.66 41.513,2.26 50.779,0.285 28.881,-6.152 34.116,-15.404 39.761,-23.376"
       id="path5209"
       inkscape:connector-curvature="0"
       style="fill:none;stroke-width:3;stroke-linecap:round" />
    <path
       d="m 152.786,310.568 c 0,0 54.854,33.65 93.944,43.816 24.246,6.305 46.925,11.839 62.655,13.837 13.48,1.713 13.545,3.132 24.15,4.036 13.733,1.17 19.01,0.63 28.441,2.163 10.242,1.665 62.56,2.73 66.329,0.798 3.697,-1.895 2.24,-2.407 6.12,-4.218 3.679,-1.718 3.253,-0.765 5.413,-3.43 1.176,-1.452 3.913,-2.31 6.592,-3.482 4.785,-2.094 3.276,-3.26 7.607,-5.328 4.679,-2.235 6.056,-1.037 5.456,-16.435 M 126.522,141.494 c -7.146,2.444 -25.564,-2.214 -33.95,3.152 -2.044,1.307 -6.948,2.033 -10.37,4.046 m 53.334,-1.942 c 0,0 -32.687,-1.964 -36.196,1.667 -1.636,1.693 -4.824,0.602 -6.7,1.873 -3.562,2.413 -3.674,2.126 -5,5.214 -0.523,1.22 -4.299,3.358 -4.884,6.756 -0.68,3.942 -3.708,3.844 -5.14,6.21 -1.977,3.27 -2.94,36.604 -0.402,40.452 2.488,3.775 0.83,7.546 2.272,9.091 1.474,1.579 1.836,4.914 4.617,7.507 1.752,1.633 2.748,2.602 5.143,3.103 2.705,0.567 4.193,2.625 7.729,3.596 3.477,0.954 5.05,-0.19 6.566,2.714 M 276.656,94.648 c 0,0 6.043,1.919 8.73,9.332 1.837,5.065 3.689,1.153 3.013,16.68 m 61.745,13.89 c 0,0 -1.56,-15.333 1.714,-18.85 2.059,-2.212 0.703,-5.807 5.105,-6.783 m -182.945,33.012 c 0,-0.12 -6.293,-0.044 -7.44,1.59 -1.757,2.501 -3.789,0.607 -11.935,2.249"
       id="path5211"
       inkscape:connector-curvature="0"
       style="fill:none;stroke-width:3;stroke-linecap:round" />
    <path
       d="m 169.464,148.982 c 0,0 -1.758,-0.054 -5,0.23 -2.707,0.236 -4.72,0.618 -6.16,-3.89 m 10.982,10.624 c 0.871,-1.989 2.008,-1.367 4.107,-1.875 m -77.176,90.206 c -4.198,-5.46 -5.933,0.38 -17.046,-6.187 M 345.714,101.571 c -0.169,-2.985 6.066,-0.877 9.033,-3.173 4.258,-3.295 16.768,0.12 22.085,-3.091 2.876,-1.736 9.805,-0.956 13.89,-0.678 9.497,0.646 24.879,8.212 30.112,16.091 0.802,1.209 0.363,3.206 1.367,4.47 1.656,2.085 1.923,4.912 1.549,7.631 m -258.59,-4.434 c 14.391,-15.904 17.777,-18.602 32.13,-25.678 4.118,-2.03 6.036,-4.582 11.003,-5.139 3.089,-0.346 4.45,-2.532 6.191,-2.576 3.717,-0.096 2.02,-2.256 8.003,-2.313 2.527,-0.024 4.165,-1.978 8.244,-2.315 4.994,-0.412 4.238,-2.062 13.58,-2.564 9.253,-0.497 8.027,-1.695 11.749,-2.023 9.388,-0.828 33.12,-0.873 34.794,1.18 1.571,1.927 7.021,0.922 9.659,1.364 2.551,0.427 1.495,2.067 5.394,2.297 3.904,0.23 8.534,-0.59 11.086,1.762 1.31,1.208 22.315,0.7 28.897,0.81 13.613,0.227 18.806,0.588 26.43,-0.308 2.992,-0.351 0.602,-2.254 6.383,-2.436 0,0 8.094,-0.188 19.139,-0.15 2.311,0.008 2.055,-2.063 4.714,-2.431 2.647,-0.367 6.85,-0.73 9.526,1.034 1.771,1.167 1.063,1.92 2.656,3.374 0.374,0.342 2.216,0.439 3.011,1.019 0.773,0.563 0.224,0.988 1.301,1.76"
       id="path5213"
       inkscape:connector-curvature="0"
       style="fill:none;stroke-width:3;stroke-linecap:round" />
    <path
       d="m 152.407,107.907 c 4.308,-6.746 8.99,-6.85 14.833,-10.84 18.05,-12.33 47.24,-33.524 88.086,-35.347 4.548,-0.203 13.845,-1.185 32.913,-0.167 3.44,0.184 0.763,2.013 5.34,2.08 3.932,0.057 8.923,0.139 13.141,0.182 2.807,0.028 1.34,2.33 4.308,2.233 6.585,-0.214 11.497,-0.03 18.283,-0.12 1.896,-0.028 2.144,2.528 4.042,2.574 11.627,0.273 30.57,0.427 46.083,-0.173 3.404,-0.131 1.786,-2.863 4.289,-3.108 9.427,-0.922 17.382,0.142 17.558,0.133 m 28.411,81.317 c 2.867,-3.094 7.283,-1.618 11.195,0.857 1.959,1.24 1.333,1.534 2.679,2.238 1.352,0.706 1.353,-1.973 2.47,-2.65 1.893,-1.147 20,-0.834 22.398,0.173 4.998,2.1 4.67,8.913 13.741,11.757 2.282,0.715 0.398,1.487 5.094,2.696 1.493,0.384 3.182,3.88 3.475,7.302 0.154,1.797 1.727,4.283 3.438,5.42 1.703,1.131 1.419,10.23 0.62,14.64 -0.268,1.486 -1.622,1.05 -1.936,1.932 -1.221,3.42 0.731,8.391 -1.163,10.644 -1.84,2.188 -0.998,5.605 -2.42,6.728 -1.744,1.378 -2.5,3.352 -4.45,4.41 -2.99,1.622 -5.962,1.859 -8.952,3.092 -2.817,1.16 -5.678,3.34 -7.69,4.125 -2.829,1.105 -3.463,0.578 -3.902,2.398"
       id="path5215"
       inkscape:connector-curvature="0"
       style="fill:none;stroke-width:3;stroke-linecap:round" />
    <path
       d="m 462.143,159.16 c 0.14,1.046 -0.341,1.711 0.715,1.934 4.5,0.948 4.711,-0.663 6.578,1.938 0.832,1.16 2.066,0.336 3.425,1.147 2.336,1.395 4.77,4.026 5.6,5.882 1.448,3.235 -0.9,9.844 0.028,13.8 0.535,2.277 2.379,1.521 2.486,3.107 0.377,5.592 0.518,8.8 -1.62,10.45 -4.793,3.7 -7.487,9.474 -11.944,8.886 m -56.908,14.279 c -2.261,-2.683 -3.619,-1.848 -5.828,-3.358 -1.372,-0.939 -1.786,-2.204 -3.245,-3.052 -2.126,-1.236 -5.307,0.423 -7.67,-0.644 -0.989,-0.446 -0.92,-1.43 -1.84,-2.07 -1.086,-0.753 -2.257,-0.23 -3.58,-1.042 -1.226,-0.753 -0.865,-1.08 -2.134,-2.061 -2.057,-1.59 -1.497,-1.223 -3.731,-1.537 m -163.546,-2.748 c 0.135,-3.417 3.115,-2.918 9.816,-2.695 4.32,0.145 16.892,0.226 20.746,0.395 4.536,0.203 1.386,-1.9 4.34,-2.463 4.5,-0.86 4.55,-7.075 1.258,-7.112"
       id="path5217"
       inkscape:connector-curvature="0"
       style="fill:none;stroke-width:3;stroke-linecap:round" />
    <path
       d="m 272.678,220.791 c -7.594,-1.528 -7.526,-7.653 -7.421,-11.423 0.129,-4.684 -0.413,-10.19 3.03,-11.049 1.636,-0.408 1.664,0.813 3.965,-0.525 4.006,-3.473 6.089,-1.584 14.505,-1.941 m 93.134,17.057 c -0.398,-2.071 0.607,-5.107 0.665,-6.269 0.205,-4.12 -3.47,-5.061 -8.155,-4.67 m -37.924,25.502 c 5.182,6.197 10.296,5.724 17.05,2.153 6.437,-3.404 12.361,-9.71 13.503,-15.826 0.976,-5.23 6.129,-7.968 6.1,-10.157 -0.05,-3.974 -1.646,-6.188 -4.937,-9.042 -2.984,-2.589 -6.504,-1.343 -9.927,-4.45 -3.179,-2.886 -3.824,-3.383 -6.549,-7.42 -2.928,-4.338 1.466,-16.44 -2.27,-21.754 -3.774,-5.368 -7.748,-3.291 -13.235,-7.737"
       id="path5219"
       inkscape:connector-curvature="0"
       style="fill:none;stroke-width:8;stroke-linecap:round" />
    <path
       d="m 291.808,149.828 c 0,0 -2.045,-2.022 -5.426,-5.573 -1.457,-1.53 -2.648,-4.168 -4.88,-5.69 -1.377,-0.94 -3.676,-1.29 -5.395,-2.298 -0.97,-0.568 -2.353,-2.465 -4.821,-3.73 -2.554,-1.31 -4.936,-1.359 -6.16,-1.902 -1.607,-0.713 -1.934,-2.134 -3.764,-2.73 -2.128,-0.694 -4.512,-0.928 -6.902,-1.434 -3.513,-0.744 -2.993,-3.015 -7.351,-3.286 -6.79,-0.422 -19.786,-2.481 -22.228,-0.118 -3.55,3.434 -9.087,1.637 -13.163,2.32 -3.198,0.535 -3.132,3.026 -5.996,3.11 -2.314,0.067 -3.45,2.21 -5.16,3.048 -2.615,1.282 -4.311,0.25 -6.301,1.82 -5.996,4.735 -10.287,13.18 -10.287,13.18 2.369,0.1 3.23,1.859 4.416,2.745 1.49,1.114 3.05,1.508 3.792,2.937 3.121,-0.793 3.002,-2.515 6.788,-3.76 2.686,-0.882 4.128,-0.048 7.144,-0.88 10.634,-2.93 30.047,-4.146 47.206,0.605 3.672,1.016 6.426,4.554 10.196,6.95 2.37,1.505 4.795,1.723 7.547,3.09 2.364,1.175 4.025,1.821 6.35,3.465 7.768,-7.427 7.353,-4.75 10.018,-6.692 3.083,-2.247 4.377,-5.177 4.377,-5.177 z"
       id="path5221"
       inkscape:connector-curvature="0"
       style="fill:none;stroke-width:8;stroke-linecap:round;stroke-linejoin:round" />
    <path
       d="m 204.43,129.02 c 0,0 -1.449,19.355 22.207,18.282 23.782,-1.078 19.278,-23.1 19.278,-23.1 -13.666,-0.5 -27.463,0.684 -41.485,4.817 z"
       id="path5223"
       inkscape:connector-curvature="0"
       style="fill-rule:evenodd" />
    <path
       d="m 418.96,143.893 c -4.711,-2.754 -9.306,-7.361 -11.611,-7.641 -6.269,-0.76 -13.027,-2.455 -26.395,-1.703 -3.478,0.196 -3.843,0.881 -7.097,2.148 -1.899,0.74 -5.413,0.329 -7.15,1.652 -2.7,2.058 -7.91,2.479 -9.788,4.7 -5.698,6.742 -7.777,10.478 -11.068,15.997 5.226,0.853 3.093,1.02 9.668,0.458 4.868,-0.417 3.651,-2.911 11.4,-3.543 2.248,-0.183 3.057,-2.439 6.699,-3.027 3.957,-0.64 12.437,0.42 13.366,-1.473 0.84,-1.71 19.278,-0.418 22.4,-1.568 6.71,-2.47 6.846,-1.98 9.577,-6 z"
       id="path5225"
       inkscape:connector-curvature="0"
       style="fill:none;stroke-width:8;stroke-linecap:round;stroke-linejoin:round" />
    <path
       d="m 383.353,133.666 c -13.015,3.012 -28.372,8.055 -35.103,20.329 1.3,6.249 7.677,5.42 20.077,3.283 12.522,-2.16 19.247,-13.422 15.026,-23.612 z"
       id="path5227"
       inkscape:connector-curvature="0"
       style="fill-rule:evenodd" />
    <path
       d="m 136.964,176.75 c -0.014,7.32 -1.61,5.439 -2.052,8.484 -0.275,1.893 -0.547,5.692 -1.33,7.033 -1.642,2.814 -4.488,2.605 -6.349,4.38 -2.623,2.5 -5.233,2.123 -7.412,4.714 -1.958,2.328 -5.123,2.27 -9.107,1.282"
       id="path5229"
       inkscape:connector-curvature="0"
       style="fill:none;stroke-width:8;stroke-linecap:round" />
    <path
       d="m 133.845,186.825 c 10.743,-1.497 174.53,100.257 290.506,44.096 5.26,-2.547 4.185,-7.07 9.569,-10.226 4.222,-2.475 8.273,-19.394 8.819,-30.331 2.21,8.265 1.656,12.273 3.321,19.862 1.662,7.576 4.158,5.178 5.314,12.07 7.01,41.787 2.011,85.564 -17.513,96.354 -60.246,19.341 -130.893,16.598 -173.122,5.576 -78.671,-20.533 -111.041,-81.622 -130.196,-122.507 -2.52,-5.377 0.684,-9.62 3.302,-14.894 z"
       id="path5231"
       inkscape:connector-curvature="0"
       style="fill:none;stroke-width:8;stroke-linecap:round;stroke-linejoin:round" />
    <path
       d="m 133.07,221.614 c 0.963,0.087 10.241,0.841 25.736,7.949 14.957,6.86 37.703,21.156 56.261,21.354 10.817,0.115 47.584,15.647 58.173,17.67 34.412,6.57 160.736,12.246 181.329,-23.173 0.472,4.179 2.438,30.28 -13.433,40.85 -24.996,9.194 -42.723,9.464 -102.916,6.915 -24.902,-1.055 -49.156,-6.543 -73.89,-16.596 -12.932,-5.255 -31.145,-7.439 -40.627,-12.247 -29.525,-14.973 -53.912,-24.294 -90.633,-42.722 z"
       id="path5233"
       inkscape:connector-curvature="0"
       style="fill-rule:evenodd;stroke-width:8;stroke-linecap:round;stroke-linejoin:round" />
    <path
       d="m 185.589,206.288 c -2.78,8.982 -4.548,20.155 0,33.766 l 21.727,6.685 c -8.318,-8.21 -21.36,-16.147 -14.218,-33.939 l -7.51,-6.512 z"
       id="path5235"
       inkscape:connector-curvature="0"
       style="fill-rule:evenodd;stroke-linecap:round" />
    <path
       d="m 176.962,270.615 c 6.039,-0.49 10.87,-4.797 5.56,-17.626 -0.684,-1.652 0.418,-3.921 -0.137,-6.034 l 11.09,4.93 c 0.423,6.814 1.473,14.814 -0.099,18.881 -1.593,4.123 -5.827,4.288 -8.034,7.243 z m 68.518,-13.617 c 1.284,-1.292 0.717,-2.963 2.076,-3.176 2.214,-0.348 1.795,-6.372 1.687,-11.237 -0.062,-2.837 2.995,2.701 2.83,-8.508 l 9.142,3.968 c -1.01,2.425 -0.259,5.205 -1.032,6.737 -0.401,0.796 -2.492,-0.014 -2.65,1.44 -0.696,6.392 2.933,10.984 -4.435,13.494 z m 60.076,-8.749 c 0,0 2.09,1.808 2.71,3.265 0.621,1.458 0.402,17.91 0.062,18.362 l 10.845,0.74 c 0,0 -1.268,1.561 -1.602,-1.787 -0.334,-3.342 -0.123,-20.334 -0.123,-20.334 z m 42.761,2.834 c 0.869,2.049 0.158,7.358 2.093,8.646 2.15,1.43 1.202,8.765 0.249,11.441 l 9.858,-0.431 c -0.397,-4.157 1.249,-14.276 -0.63,-14.51 -1.986,-0.25 -2.067,-2.051 -1.033,-5.577 z m 45.781,-6.593 c -1.01,12.695 0.535,12.49 2.713,13.553 1.145,0.56 0.406,3.076 0.566,5.82 0.103,1.768 2.142,-0.487 1.65,3.795 l 6.902,-1.356 c 3.083,-6.174 1.613,-7.752 -0.326,-9.318 -0.616,-0.498 -0.102,-1.77 -0.472,-2.9 -0.423,-1.297 -2.375,-0.825 -2.333,-2.433 0.083,-3.183 0.407,-6.54 -0.32,-9.01 l -8.38,1.85 z m 26.126,-9.242 c -0.067,2.057 -0.515,7.529 1.169,7.32 2.381,-0.296 2.673,15.406 0.073,15.664 -1.526,0.15 -0.82,3.949 -1.119,5.113 l 10.352,-3.45 c 1.497,-2.886 2.492,-18.57 -0.398,-21.599 -1.397,-1.464 -0.15,-5.948 -0.835,-7.608 z m 21.073,18.978 c -0.001,-1.159 0.593,-3.708 0.398,-4.955 -0.282,-1.798 -1.408,-2.216 -1.622,-3.027 -0.521,-1.974 0.106,-2.278 -0.415,-5.218 -0.13,-0.74 -1.91,-0.253 -1.853,-1.92 0.15,-4.413 -1.638,-4.877 -1.986,-6.705 -0.734,-3.845 -2.779,-3.704 -3.765,-5.287 l 8.133,-8.872 c -0.248,4.367 0.454,4.877 2.797,7.156 1.011,0.983 2.136,4.658 2.174,7.037 0.08,5.164 4.035,5.866 6.244,9.59 -0.076,7.534 -7.08,8.795 -10.105,12.2 z m -209.334,56.912 c 2.799,-7.879 0.411,-16.306 10.283,-23.353 0.585,-3.651 0.862,-8.964 -0.872,-17.254 l 9.063,2.615 c 1.348,9.84 0.494,16.746 -0.48,20.085 -5.91,3.943 -5.439,9.22 -6.203,12.137 -0.567,2.165 -2.26,1.917 -2.556,4.42 -0.347,2.944 3.093,4.75 3.662,5.881 l -12.897,-4.53 z m 66.661,-21.175 c 0.334,14.17 1.252,20.29 0.082,25.97 -0.346,1.675 -2.35,1.326 -2.351,3.05 -0.002,1.676 1.977,1.832 2.7,3.399 0.887,1.924 -1.72,4.09 -3.916,6.01 l 16.992,1.568 c -0.657,-8.008 -5.689,-3.494 -6.548,-6.877 -0.229,-0.903 1.952,-1.16 2.215,-3.125 0.604,-4.5 -0.052,-13.515 0.673,-28.078 z m 46.968,6.274 c 0.837,3.478 1.27,5.524 1.268,8.192 0,1.151 -2.724,0.94 -2.454,2.782 0.494,3.37 0.659,7.871 -0.034,10.838 -0.296,1.266 -1.773,1.432 -2.269,2.491 -0.606,1.292 0.52,4.473 0.05,5.89 -0.686,2.074 -0.978,0.629 -3.096,3.094 l 24.921,0.349 c 1.227,-2.311 0.261,-3.033 -3.134,-3.103 -7.263,-0.154 -5.388,0.624 -7.86,0.888 -2.636,0.282 -2.94,-1.884 -3.078,-2.337 -0.315,-1.038 3.42,-1.456 3.47,-2.88 0.15,-4.308 -0.106,-8.488 -0.244,-11.733 -0.07,-1.665 2.018,-0.866 2.15,-2.452 0.107,-1.288 -0.539,-2.625 -0.15,-3.819 1.038,-3.177 2.368,-3.629 7.104,-6.98 z m 37.121,1.917 c 0.3,2.225 0.253,5.293 -1.614,5.484 -1.748,0.179 0.284,5.86 -1.393,6.386 -3.825,1.201 -1.427,4.805 -2.948,5.251 -2.02,0.593 -0.23,3.188 -2.557,4.762 -0.702,0.474 -0.2,3.374 -1.458,3.946 -3.367,1.532 -3.636,-1.21 -7.37,5.367 l 25.967,-4.27 c -3.217,-0.337 -7.793,0.297 -8.017,-2.178 0.414,-3.364 1.91,-2.685 2.673,-4.481 0.598,-1.406 0.128,-3.298 1.555,-4.113 1.557,-0.89 1.027,-4.135 1.547,-5.726 0.386,-1.182 1.5,-1.16 1.942,-1.959 0.762,-1.38 0.13,-5.641 1.147,-6.08 2.372,-1.022 8.901,0.654 9.348,-3.086 z"
       id="path5237"
       inkscape:connector-curvature="0"
       style="fill-rule:evenodd" />
    <path
       d="m 410.73,296.042 c -5.579,5.977 -4.648,10.143 -6.29,13.174 -1.162,2.144 -3.412,2.254 -5.035,8.163 -0.156,1.051 0.091,1.578 1.863,1.933 0.311,0.062 0.254,0.86 0.416,1.865 -0.41,1.581 -5.891,0.71 -8.049,1.308 -2.067,0.572 -1.956,1.317 -3.138,2.766 l 35.7,-6.767 c -8.099,-1.594 -9.875,-1.213 -11.59,0.97 -0.502,0.64 -3.782,0.097 -3.877,-0.349 -0.51,-1.99 -0.991,-4.038 1.056,-4.814 1.24,-0.47 0.177,-2.871 1.173,-4.81 0.312,-0.608 1.145,-0.557 1.522,-1.22 0.804,-1.414 -0.26,-2.945 2.333,-3.612 1.217,-0.313 0.037,-2.933 0.857,-4.093 1.17,-1.654 1.964,0.713 2.312,-5.62 z"
       id="path5239"
       inkscape:connector-curvature="0"
       style="fill-rule:evenodd" />
    <path
       d="m 428.753,292.727 c -0.8,6.694 -3.171,5.49 -3.147,7.663 0.019,1.667 0.295,3.348 -0.1,4.723 -0.451,1.564 -2.865,-1.508 -2.002,3.496 1.885,2.287 2.614,2.022 4.57,2.947 1.458,-1.227 1.49,-2.053 2.544,-2.097 0.831,-0.034 2.413,0.54 2.278,1.982 -0.56,0.875 -2.351,1.147 -2.592,1.827 -1.183,3.356 -3.626,1.212 -4.576,2.2 -0.898,0.933 -0.58,1.927 -1.119,3.5 6.11,-1.635 11.762,-4.713 15.675,-8.909 -4.457,0.907 -5.643,0.59 -6.629,-1.795 -0.677,-1.606 -0.18,-4.616 2.13,-6.304 0.934,-0.682 0.412,-2.17 0.9,-3.339 0.374,-0.9 1.351,-0.734 1.7,-1.62 0.527,-1.332 -0.065,-2.863 0.936,-3.369 2.42,-1.221 1.743,-3.95 2,-4.634 l -12.568,3.73 z"
       id="path5241"
       inkscape:connector-curvature="0"
       style="fill-rule:evenodd" />
  </g>
  <path
     style="fill:#ffffff;stroke-width:1.91949153"
     d="M 81.48018,366.35078 C 66.220352,363.98574 61.238917,361.41561 49.003961,349.59502 42.06555,342.8916 35.08929,334.29713 33.501162,330.4962 c -3.78812,-9.06624 -3.662011,-26.66032 0.322723,-45.02496 4.122486,-18.99947 4.597046,-65.55123 0.840852,-82.48307 -1.466925,-6.61247 -5.690219,-17.8415 -9.385098,-24.95339 -3.694878,-7.11189 -8.52378,-16.38579 -10.730893,-20.60867 -2.55555,-4.88955 -4.283365,-12.44609 -4.7575739,-20.80709 L 9.0465314,123.48991 23.723388,109.74614 C 43.337044,91.379439 45.941312,87.113194 45.956939,73.32373 45.969224,62.502167 46.254366,61.884649 55.3148,53.05951 c 9.97682,-9.717727 29.329742,-20.719135 45.91773,-26.102506 7.34395,-2.383364 12.9229,-2.928993 20.15466,-1.971159 17.5272,2.321448 59.11684,1.556205 83.90019,-1.54375 64.90227,-8.118117 90.95935,-1.285517 150.35111,39.424564 2.98623,2.046905 5.93215,3.218995 6.5465,2.604644 2.09318,-2.093201 -5.36951,-8.295798 -24.04875,-19.988029 -22.67346,-14.1924 -40.6842,-22.53986 -56.5875,-26.226668 -16.1983,-3.755196 -48.72105,-4.413144 -68.58339,-1.387468 -8.97362,1.366974 -30.99979,2.847061 -48.94703,3.289084 l -32.63136,0.803677 34.55085,-4.57154 c 64.65644,-8.5549122 152.68827,-10.9276203 174.63676,-4.706957 9.71564,2.753613 22.1927,11.11234 35.23105,23.602255 7.37421,7.064013 12.93887,15.182843 19.88004,29.004855 5.30164,10.557204 11.71954,21.961765 14.26202,25.343467 l 4.62267,6.148554 -15.38513,-0.500651 c -11.64517,-0.37895 -15.38513,0.109485 -15.38513,2.009285 0,1.380466 -1.67656,2.509943 -3.72569,2.509943 -2.04913,0 -4.25954,0.86377 -4.91202,1.91949 -0.75165,1.21619 4.30575,1.93016 13.80303,1.94863 21.75085,0.0423 29.59654,2.93976 38.09388,14.06837 l 7.05239,9.23624 -0.6919,21.79637 c -0.80512,25.36255 -3.03451,30.03281 -16.92986,35.46566 -7.89472,3.08671 -12.6493,7.70083 -7.93524,7.70083 3.53223,0 18.28898,-6.22986 21.72561,-9.17191 8.14587,-6.97354 12.55981,-47.27923 6.35281,-58.01029 -1.52661,-2.63931 -3.37272,-6.09439 -4.10245,-7.67797 -0.72973,-1.58358 -2.62982,-4.39613 -4.22242,-6.25012 -1.59259,-1.85398 -2.30696,-3.95954 -1.58748,-4.67901 2.07359,-2.07359 18.20221,14.85403 22.38442,23.49334 5.08577,10.5058 5.00373,27.76336 -0.18677,39.26206 -4.64687,10.29464 -18.40216,24.95339 -23.41543,24.95339 -4.65162,0 -10.99101,3.4349 -10.99101,5.95536 0,1.10779 1.69251,1.44413 3.83898,0.76286 5.23908,-1.66282 4.88518,-0.44405 -2.79128,9.61264 -3.64663,4.77737 -9.79145,14.70189 -13.65513,22.05448 -8.35012,15.89028 -27.23141,34.70118 -49.89912,49.71304 -15.98632,10.58708 -83.31265,44.95444 -108.89721,55.58762 -8.23086,3.42082 -22.55368,7.84133 -31.82849,9.82334 -9.27481,1.98203 -26.29417,6.83112 -37.82081,10.77574 -20.62252,7.05739 -21.47916,7.17949 -53.58889,7.63702 -17.94725,0.25573 -35.222669,0.0633 -38.38983,-0.42751 z m 80.61864,-34.16219 c 53.50804,-5.09456 103.72017,-16.52306 138.20339,-31.45572 21.12942,-9.14989 59.38385,-29.63542 61.38385,-32.87147 2.95524,-4.78168 -3.92884,-2.23985 -23.95376,8.84454 -43.93114,24.31717 -77.68008,35.60169 -136.5815,45.66825 -29.62087,5.06237 -95.80536,9.71156 -108.760344,7.63996 -4.358727,-0.69698 -13.776565,-5.04068 -20.933758,-9.65504 -7.15573,-4.61344 -13.658245,-8.3939 -14.450035,-8.401 -0.791791,-0.007 -1.439619,-3.46802 -1.439619,-7.6909 0,-4.22288 -0.911098,-7.67797 -2.024662,-7.67797 -1.216764,0 -1.791214,3.61895 -1.439619,9.06941 l 0.585044,9.0694 16.315678,10.08883 16.315678,10.08883 23.993647,0.0115 c 13.1965,0.006 36.95021,-1.22151 52.78601,-2.72925 z m 22.07416,-13.71597 c 33.57743,-1.2498 50.45767,-4.86611 84.45762,-18.09361 29.24536,-11.37775 71.58212,-32.78901 69.31564,-35.05548 -1.1997,-1.1997 -10.93273,2.63525 -27.42974,10.80769 -29.63735,14.68204 -53.34998,24.38321 -76.40584,31.25871 -14.40087,4.2945 -22.17291,5.12372 -65.29564,6.96659 -48.14692,2.05756 -49.17957,2.02183 -63.01525,-2.18062 -11.130705,-3.38086 -15.84764,-6.05395 -22.602513,-12.80881 -4.694979,-4.69498 -8.945478,-8.53632 -9.445557,-8.53632 -2.721234,0 -0.190337,6.12204 4.691245,11.3478 11.754601,12.58334 38.449205,20.13735 64.460965,18.24106 6.33432,-0.46179 24.9054,-1.33794 41.26907,-1.94701 z m 23.03389,-15.16516 c 0,-2.46568 -5.65182,-2.87924 -39.34957,-2.87924 -33.69774,0 -39.34958,0.41356 -39.34958,2.87924 0,2.46568 5.65184,2.87924 39.34958,2.87924 33.69775,0 39.34957,-0.41356 39.34957,-2.87924 z m 24.18633,-13.50821 c 58.95086,-10.22669 98.55817,-36.12493 131.33372,-85.87592 6.41028,-9.73034 13.77412,-18.80183 16.36411,-20.15886 4.58837,-2.40409 6.67136,-10.02269 2.74028,-10.02269 -1.09845,0 -0.56625,-2.7578 1.20387,-6.23834 4.16099,-8.18175 4.06807,-8.11286 7.31136,-5.42117 1.54012,1.2782 5.66392,2.04911 9.16398,1.71315 4.88046,-0.46846 6.36373,-1.50564 6.36373,-4.44982 0,-2.77363 -1.48438,-4.00942 -5.3489,-4.45314 -6.7948,-0.78017 -18.44633,-12.31009 -19.92841,-19.72041 -0.62241,-3.11215 -1.92171,-6.14673 -2.88733,-6.74351 -2.94592,-1.82068 -7.70242,3.56085 -6.89242,7.79813 0.66622,3.48505 -2.98586,5.65334 -28.98611,17.20944 -50.93581,22.63901 -88.95332,35.0405 -127.90599,41.72353 -40.55652,6.95822 -86.32772,3.48522 -115.169487,-8.73875 -14.216925,-6.02554 -23.993644,-22.09665 -23.993644,-39.4411 0,-3.97126 -3.997095,-6.22477 -7.357382,-4.148 -1.215785,0.75139 -2.763926,5.63816 -3.440314,10.85948 -0.676387,5.22132 -3.009598,13.38028 -5.184915,18.13102 -5.619227,12.27201 -5.980994,62.1364 -0.580869,80.06439 5.060847,16.80162 13.706641,26.32422 27.555677,30.35025 41.215974,11.9818 101.976544,15.13681 145.639044,7.56232 z M 178.74323,189.75996 c 4.70736,-4.2601 4.58137,-10.2597 -0.21545,-10.2597 -2.04913,0 -4.25954,0.86377 -4.91201,1.91949 -1.93061,3.12379 -7.75956,2.20301 -13.21389,-2.08737 -4.52755,-3.56137 -12.69924,-17.24691 -12.69924,-21.26805 0,-0.83597 3.32314,-3.21529 7.38475,-5.28737 10.0011,-5.10218 13.72965,-11.38819 13.72965,-23.147 0,-9.16782 0.36141,-9.86839 6.63384,-12.85951 7.59394,-3.62129 9.62104,-7.07526 5.9436,-10.12726 -1.86548,-1.54821 -3.89877,-1.50217 -7.57198,0.17146 -2.76193,1.25842 -5.26891,1.93178 -5.57108,1.49636 C 159.08695,95.105256 157.1487,93.609894 143.69082,89.362518 122.4242,82.650664 101.26859,85.701249 91.091083,96.947266 l -3.816477,4.217154 5.268198,4.53152 c 5.44317,4.68201 7.280163,5.1417 33.085676,8.27921 8.44577,1.02686 19.45885,2.94716 24.47352,4.26733 8.96563,2.36032 9.11759,2.52883 9.11759,10.11106 0,7.88483 -5.66511,16.59587 -10.79291,16.59587 -1.34516,0 -4.7758,2.15943 -7.62366,4.79873 -2.84785,2.6393 -5.94434,4.79873 -6.8811,4.79873 -0.93675,0 -4.72638,3.0232 -8.4214,6.71822 -3.69502,3.69502 -8.63292,6.72251 -10.97309,6.72775 -4.81089,0.0108 -16.473105,8.53608 -14.45839,10.56935 0.72239,0.72905 4.60936,-0.42027 8.63771,-2.55403 11.99654,-6.35441 19.80097,-8.34316 19.80097,-5.04576 0,4.49096 7.6178,3.25347 9.47675,-1.53947 1.58793,-4.09415 1.83601,-3.94367 4.76806,2.89221 3.08026,7.18141 11.98043,16.56429 18.06715,19.04703 5.83592,2.38044 14.36528,1.61799 17.92355,-1.60221 z M 49.808569,178.88075 c 0,-1.39645 -4.102913,-4.47305 -9.117584,-6.83689 -5.014672,-2.36384 -10.406735,-4.98235 -11.982363,-5.81892 -1.575626,-0.83656 -3.580606,-4.45419 -4.455508,-8.03917 -0.874902,-3.58498 -2.506454,-9.68211 -3.62567,-13.54918 -1.730973,-5.98079 -1.398261,-8.34624 2.227375,-15.8358 2.344272,-4.84262 4.848922,-8.80477 5.565887,-8.80477 0.716967,0 5.484703,-3.45508 10.594975,-7.67797 7.573488,-6.25836 10.778824,-7.67796 17.336212,-7.67796 4.424647,0 8.988603,0.94379 10.142127,2.09731 1.516757,1.51676 3.182093,1.51676 6.016182,0 2.155378,-1.15352 5.775178,-2.09731 8.043999,-2.09731 2.46162,0 3.791549,-0.96757 3.297925,-2.39937 -0.457085,-1.3258 -3.319914,-2.20849 -6.398305,-1.97276 -3.064105,0.23462 -12.169111,0.40795 -20.233348,0.38517 -13.082569,-0.037 -15.047188,0.44075 -18.23517,4.4341 -1.965106,2.46155 -6.626246,6.34674 -10.358087,8.63377 -9.852532,6.03804 -14.177315,16.95415 -12.52012,31.60182 2.009273,17.75962 5.388196,23.03444 19.027465,29.70367 14.210073,6.94834 14.674008,7.07019 14.674008,3.85426 z m 198.308851,-0.90381 c 3.09232,-3.41698 4.26308,-9.95617 3.58882,-20.0452 -0.27244,-4.07629 -1.90834,-5.90352 -7.30369,-8.15784 -8.80438,-3.6787 -18.76635,-3.72897 -21.76997,-0.10985 -3.2873,3.96097 -0.81108,6.80231 5.92818,6.80231 8.76866,0 13.19696,3.17423 13.19696,9.45963 0,3.10535 -1.24932,5.96498 -2.87924,6.59044 -1.58358,0.60768 -2.87923,2.85952 -2.87923,5.00409 0,5.02684 7.71889,5.31757 12.11817,0.45642 z m 169.10444,-2.79554 c 13.02951,-20.10886 3.94419,-51.83007 -17.57051,-61.34704 -12.99476,-5.7482 -26.35613,-4.00971 -46.97287,6.11179 -26.83261,13.1731 -43.18413,12.68505 -59.6597,-1.7807 -11.80004,-10.36057 -20.07951,-4.67449 -8.72255,5.99039 19.81143,18.60414 46.66028,19.63322 76.26869,2.92327 12.10662,-6.83255 28.23566,-8.25851 37.49034,-3.3145 12.97161,6.92966 19.17934,29.92056 11.8566,43.91207 -1.84559,3.52638 -2.88836,7.6293 -2.31725,9.11759 1.56396,4.0756 6.47445,3.25294 9.62725,-1.61287 z m -187.33347,-2.86505 c -0.96685,-8.38033 -8.75075,-11.09248 -22.34288,-7.78498 -8.7709,2.13432 -11.01546,3.47814 -11.50921,6.89065 -0.51627,3.56812 0.29962,4.23926 5.15364,4.23926 3.17186,0 8.13227,-0.89927 11.02314,-1.99838 4.13278,-1.57128 5.88833,-1.36616 8.21425,0.95975 1.62696,1.62696 4.55793,2.95812 6.51328,2.95812 2.74401,0 3.41658,-1.20114 2.94778,-5.26442 z M 47.889078,162.22483 c 0,-1.05572 -1.14509,-1.91949 -2.544643,-1.91949 -1.399553,0 -4.42591,-2.00251 -6.725236,-4.45003 -3.723683,-3.96368 -4.046129,-5.79932 -2.950284,-16.79556 1.415096,-14.19975 2.698395,-16.43424 10.411292,-18.12828 5.580138,-1.2256 8.876262,-4.10535 6.928418,-6.05319 -1.786957,-1.78696 -14.116739,3.19243 -17.694668,7.14599 -1.893029,2.09177 -3.670636,7.02594 -3.950237,10.96482 -0.2796,3.93887 -1.071621,9.82542 -1.760043,13.08121 -1.050639,4.96884 -0.275593,6.89569 4.825533,11.99682 5.824979,5.82498 13.459868,8.18337 13.459868,4.15771 z m 247.614402,-2.67387 c 0,-4.10051 -5.2872,-5.24804 -17.70636,-3.84297 -12.2988,1.39145 -21.18674,-1.45515 -19.36512,-6.20219 0.59942,-1.56205 -0.24547,-2.6369 -2.07273,-2.6369 -4.80955,0 -3.86529,8.54689 1.23426,11.17186 2.37537,1.22271 11.22902,2.4905 19.67479,2.8173 8.44576,0.32681 16.00376,0.76803 16.79555,0.98049 0.79179,0.21246 1.43961,-0.81696 1.43961,-2.28759 z m -182.83156,-16.5 c 10.9001,-6.64592 6.33406,-14.6639 -5.01004,-8.79764 -7.955647,4.11403 -13.157674,3.78844 -15.711465,-0.98336 -5.114848,-9.55718 -33.09867,-13.12134 -42.842731,-5.45666 -2.781675,2.18807 -5.057589,5.23838 -5.057589,6.77847 0,4.28863 5.490644,5.43654 9.340219,1.95273 3.887162,-3.51784 18.255143,-4.20191 26.045415,-1.24006 2.951679,1.12223 4.923688,3.36452 4.923688,5.59852 0,4.59039 2.388206,5.62258 13.436441,5.80723 5.447412,0.091 10.941822,-1.26048 14.876062,-3.65923 z m 145.09022,-31.51279 c 4.81299,-3.55093 8.05355,-4.00958 27.83262,-3.93928 17.41467,0.0619 23.76467,0.81565 28.59678,3.39445 6.03035,3.21828 6.40724,3.18799 12.9328,-1.03931 3.69681,-2.39481 6.73214,-5.2334 6.74521,-6.30798 0.0134,-1.07458 -2.20903,-5.239641 -4.93801,-9.255687 -7.34362,-10.80711 -31.63583,-20.392168 -51.80116,-20.439356 -22.7706,-0.05329 -59.94537,20.308986 -60.24804,33.000523 -0.043,1.79915 3.84733,6.2684 8.64497,9.93167 l 8.72299,6.6605 9.0323,-3.99334 c 4.96778,-2.19634 11.48357,-5.80183 14.47954,-8.01219 z m 86.95398,-0.17986 c -0.72553,-1.89073 0.061,-2.87924 2.2912,-2.87924 4.11785,0 13.72308,-4.28064 13.7439,-6.12506 0.0253,-2.24326 -2.44771,-3.036959 -13.90134,-4.461497 -7.65921,-0.952611 -11.03707,-0.717588 -11.03707,0.767931 0,1.177365 1.70044,2.140666 3.77875,2.140666 2.79126,0 3.45485,0.8778 2.53937,3.35911 -0.68165,1.84751 -2.16615,4.00693 -3.29888,4.79872 -1.38543,0.96845 -1.11714,2.05824 0.81974,3.32972 4.19779,2.75567 6.32858,2.36423 5.06433,-0.93035 z M 164.97806,83.499636 c 0,-5.292927 -1.07971,-11.555268 -2.39936,-13.916313 -3.99854,-7.153955 -9.11759,-9.564145 -9.11759,-4.292811 0,1.583581 0.77927,2.879238 1.73172,2.879238 2.4494,0 5.94625,10.89212 5.94625,18.521601 0,3.537483 0.86377,6.431788 1.91949,6.431788 1.05572,0 1.91949,-4.330576 1.91949,-9.623503 z m -72.6763,-8.463117 c 2.666644,-9.970952 14.26143,-18.533128 28.78768,-21.258267 6.15106,-1.153946 36.71886,2.899809 44.56238,5.909648 2.043,0.783975 3.16522,0.228694 3.16522,-1.566159 0,-4.014422 -11.57114,-6.858276 -33.5911,-8.255717 -18.48006,-1.172792 -19.58801,-1.015484 -29.75012,4.223927 -11.280967,5.816276 -19.196912,15.366967 -19.196912,23.16133 0,6.219991 4.177931,4.683657 6.022852,-2.214762 z m 134.16806,-1.588168 c 0.0712,-6.532749 2.06823,-10.926365 8.73052,-19.208029 3.62586,-4.507181 5.42049,-5.013405 19.19491,-5.41449 31.03607,-0.90371 50.53463,5.421295 69.01363,22.386851 9.03192,8.292198 12.40393,10.145453 12.40393,6.817191 0,-2.79453 -17.77012,-18.460761 -27.22492,-24.001652 -4.91349,-2.879492 -13.53856,-6.117416 -19.16685,-7.195385 -16.81262,-3.220077 -49.73522,-4.240276 -58.72439,-1.819739 -8.39161,2.259625 -11.05372,5.881228 -4.32308,5.881228 3.79991,0 3.79992,0.01785 0.008,6.238347 -3.97434,6.517578 -5.32419,22.554026 -1.89895,22.554026 1.05572,0 1.95011,-2.807257 1.98752,-6.238348 z m 122.77943,1.847334 c 0,-3.769706 -17.04384,-19.546253 -27.83263,-25.763133 -11.01099,-6.344925 -21.61194,-10.448808 -39.34958,-15.233175 -16.66437,-4.494873 -63.03109,-4.927436 -72.94067,-0.680475 -8.45761,3.624689 -61.4718,3.813502 -87.89056,0.313027 -16.14334,-2.138985 -18.36661,-2.044844 -23.513768,0.995659 -3.126562,1.846906 -5.684659,4.467433 -5.684659,5.823392 0,3.368529 1.900784,3.085088 8.504607,-1.2682 3.57545,-2.356957 6.7231,-3.147849 8.63772,-2.17035 9.33663,4.766773 77.18588,5.313634 100.9064,0.8133 25.346,-4.808724 35.92749,-5.13854 55.85907,-1.741077 33.82969,5.766487 56.27924,15.801598 71.78712,32.089384 9.02408,9.477919 11.51695,10.954475 11.51695,6.821648 z"
     id="path5272"
     inkscape:connector-curvature="0" />
  <path
     style="fill:#ffffff;stroke-width:1.91949153"
     d="M 81.48018,366.33761 C 66.279523,364.01651 61.243959,361.42049 49.003961,349.59502 42.06555,342.8916 35.08929,334.29713 33.501162,330.4962 c -3.792492,-9.0767 -3.657274,-25.84978 0.368349,-45.69173 2.19885,-10.83797 3.259558,-25.39522 3.267257,-44.84023 0.01345,-33.96532 -1.972462,-42.35365 -16.73849,-70.70204 C 11.881834,152.912 10.465054,148.59425 9.8094638,136.99193 L 9.0526068,123.59743 25.46962,107.88041 C 43.450327,90.666373 45.969586,86.195764 45.969586,71.50172 c 0,-9.333399 0.503347,-10.327122 9.517799,-18.790334 10.366212,-9.732312 29.544952,-20.495287 46.105445,-25.874053 9.39922,-3.052823 12.86235,-3.18266 32.63135,-1.223399 18.00661,1.784593 27.28794,1.65564 49.9488,-0.693982 88.24879,-9.150197 105.42876,-5.761515 162.9255,32.136404 13.39404,8.828427 17.74602,10.400867 14.57191,5.265037 -1.72873,-2.797135 -35.21167,-24.631981 -46.93517,-30.607294 -19.96151,-10.174104 -34.53841,-13.804658 -59.54106,-14.829416 -13.40356,-0.549359 -31.6185,-0.0044 -41.26907,1.234654 -9.50148,1.219931 -31.95953,2.585166 -49.90677,3.033855 l -32.63136,0.815798 35.18869,-4.605157 c 58.97471,-7.7180417 130.6992,-10.7171739 161.29872,-6.744646 18.29227,2.37476 28.46145,7.606422 45.26919,23.289307 11.05493,10.315082 15.26713,16.009016 21.93781,29.654977 4.54073,9.28878 10.85213,20.662224 14.02534,25.274321 l 5.76945,8.385633 -14.95614,-0.436704 c -9.98371,-0.291513 -15.20279,0.303219 -15.698,1.788842 -0.40801,1.224048 -2.39741,2.225547 -4.42086,2.225547 -2.02347,0 -3.67903,0.86377 -3.67903,1.91949 0,1.10047 5.93785,1.93192 13.91631,1.94863 20.50864,0.0429 28.63903,3.09104 36.81844,13.80329 6.7234,8.80537 6.8498,9.30141 6.83928,26.84161 -0.0173,28.23808 -3.38928,35.68701 -18.51008,40.8853 -3.99189,1.37234 -7.57613,3.44964 -7.96498,4.61622 -2.07378,6.22135 21.94378,-4.31885 25.32105,-11.11225 7.8711,-15.83271 9.31771,-49.83944 2.44326,-57.43562 -1.75891,-1.94359 -3.19803,-4.26153 -3.19803,-5.151 0,-0.88946 -1.43432,-3.20211 -3.18739,-5.13922 -1.75305,-1.93711 -2.59872,-4.11069 -1.87924,-4.83016 2.07359,-2.07359 18.20221,14.85403 22.38442,23.49334 5.08577,10.5058 5.00373,27.76336 -0.18677,39.26206 -4.64687,10.29464 -18.40216,24.95339 -23.41543,24.95339 -4.65162,0 -10.99101,3.4349 -10.99101,5.95536 0,1.10779 1.69251,1.44413 3.83898,0.76286 5.23908,-1.66282 4.88518,-0.44405 -2.79128,9.61264 -3.64663,4.77737 -9.79145,14.70189 -13.65513,22.05448 -13.62177,25.92227 -43.66216,49.35285 -98.12834,76.53709 -47.65067,23.7826 -69.14957,32.97593 -86.97186,37.1908 -8.97362,2.12221 -27.11282,7.36757 -40.30932,11.65637 -23.86612,7.75635 -24.16708,7.79991 -56.625,8.19446 -17.94725,0.21817 -35.222669,9.8e-4 -38.38983,-0.48264 z m 79.6589,-34.21422 c 46.17085,-4.36101 90.32862,-13.40009 123.20799,-25.22064 25.64501,-9.21973 82.0242,-38.8371 77.072,-40.48784 -1.21642,-0.40547 -14.60155,5.7279 -29.74476,13.62968 -35.30496,18.42228 -51.8189,24.85808 -83.98488,32.73053 -38.64735,9.45874 -69.78492,14.10759 -110.3709,16.47843 -45.51311,2.65865 -49.312628,2.11327 -67.3553,-9.6684 -3.167161,-2.06812 -7.701959,-4.77181 -10.07733,-6.0082 -3.338583,-1.73775 -4.318856,-3.92077 -4.318856,-9.61786 0,-4.05341 -0.911098,-7.36985 -2.024662,-7.36985 -1.216764,0 -1.791214,3.61895 -1.439619,9.06941 l 0.585044,9.0694 16.315678,10.08883 16.315678,10.08883 23.033897,0.0134 c 12.66864,0.008 36.42235,-1.25065 52.78602,-2.79626 z m 24.12984,-14.21246 c 36.48691,-1.69729 36.69389,-1.73201 63.34321,-10.62885 27.79097,-9.27796 89.12017,-37.70682 89.12017,-41.31124 0,-2.40267 -3.14714,-1.12978 -34.96661,14.14235 -25.22721,12.10811 -49.20647,21.58988 -70.60543,27.91847 -12.01989,3.55478 -22.4867,4.59754 -63.41058,6.31727 -47.77611,2.0077 -49.3587,1.95516 -62.64264,-2.07971 -10.199208,-3.09792 -16.098596,-6.36052 -23.446402,-12.96684 -10.585591,-9.51735 -13.487367,-7.58596 -4.078964,2.71493 9.132576,9.99888 24.927256,16.16761 45.088016,17.60946 9.5231,0.68105 19.04227,0.95677 21.15371,0.61266 2.11144,-0.34409 20.31192,-1.39192 40.44552,-2.3285 z m 20.50154,-14.60347 c -0.49456,-1.99155 -70.10176,-3.82816 -74.92593,-1.97694 -1.41907,0.54454 -2.03136,1.87801 -1.36065,2.96325 1.6442,2.66036 76.95038,1.68674 76.28658,-0.98631 z m 25.05823,-13.61741 c 23.96311,-3.8547 51.90582,-13.71759 70.83746,-25.00331 20.66555,-12.3194 45.41799,-36.85701 60.75371,-60.22643 6.57915,-10.02568 14.08118,-19.33881 16.67117,-20.69584 4.58837,-2.40409 6.67136,-10.02269 2.74028,-10.02269 -1.09845,0 -0.56625,-2.7578 1.20387,-6.23834 4.16099,-8.18175 4.06807,-8.11286 7.31136,-5.42117 1.54012,1.2782 5.66392,2.04911 9.16398,1.71315 4.88046,-0.46846 6.36373,-1.50564 6.36373,-4.44982 0,-2.77363 -1.48438,-4.00942 -5.3489,-4.45314 -6.7948,-0.78017 -18.44633,-12.31009 -19.92841,-19.72041 -0.62241,-3.11215 -1.92171,-6.14673 -2.88733,-6.74351 -2.88824,-1.78503 -7.57384,3.40994 -6.95872,7.71519 0.49135,3.43888 -3.12334,5.67752 -25.4963,15.79036 -71.64291,32.38345 -125.59052,46.76108 -175.4565,46.76108 -39.68709,0 -70.890847,-7.97084 -83.799487,-21.40615 -6.726096,-7.00051 -11.236644,-19.24951 -11.236644,-30.5146 0,-2.4801 -1.312348,-3.7445 -3.886492,-3.7445 -4.281436,0 -7.622911,6.55897 -7.642283,15.00102 -0.0065,2.8345 -1.326225,7.67413 -2.932714,10.75473 -3.6405,6.98101 -6.569472,26.64199 -6.600395,44.30569 -0.04816,27.51365 6.526147,51.17558 17.009327,61.21911 7.988507,7.65347 42.382938,15.62583 82.751708,19.18119 14.95869,1.31744 58.99663,-0.84644 77.36758,-3.80161 z M 177.9874,189.94862 c 5.36939,-3.76086 5.71526,-10.44836 0.54038,-10.44836 -2.04913,0 -4.25954,0.86377 -4.91201,1.91949 -1.93061,3.12379 -7.75956,2.20301 -13.21389,-2.08737 -4.4812,-3.52491 -12.69924,-17.23385 -12.69924,-21.18425 0,-0.78987 3.31694,-3.30036 7.37098,-5.57886 9.4808,-5.3285 13.74342,-12.70495 13.74342,-23.78288 0,-8.20578 0.48462,-9.08358 6.63384,-12.01594 7.65177,-3.64887 9.61808,-7.07771 5.85146,-10.20373 -1.90573,-1.58162 -3.71177,-1.62075 -6.47793,-0.14034 -5.65026,3.02393 -6.75737,2.63128 -10.51458,-3.72918 -9.96263,-16.865391 -50.51703,-22.331986 -68.583361,-9.244806 -4.278612,3.09941 -7.452364,6.616086 -7.052782,7.814836 1.941848,5.82554 10.768731,9.29066 28.359443,11.13289 10.00605,1.04791 23.59138,3.39083 30.18963,5.2065 l 11.99683,3.3012 v 7.57823 c 0,7.49999 -5.66597,16.46032 -10.41193,16.4657 -1.13562,0.001 -4.57449,2.16072 -7.64193,4.79873 -3.06743,2.63802 -6.17407,4.79639 -6.90364,4.79639 -0.72956,0 -4.43937,3.0232 -8.24401,6.71822 -3.82047,3.71039 -8.89373,6.72249 -11.33153,6.72775 -4.85905,0.0106 -16.681326,8.48624 -14.66971,10.51715 0.69368,0.70034 4.14877,-0.27029 7.67797,-2.15696 5.26679,-2.81556 18.46134,-8.2281 20.33304,-8.34082 0.26393,-0.0159 0.47987,1.26676 0.47987,2.85034 0,4.57501 7.59716,3.43209 9.38931,-1.41254 1.49508,-4.0416 1.81625,-3.8458 5.50982,3.35911 8.65655,16.88604 24.04978,24.51554 34.58055,17.1395 z M 49.808569,178.88028 c 0,-1.39671 -5.370593,-5.06773 -11.934651,-8.15784 -10.337598,-4.86654 -12.153902,-6.51738 -13.573094,-12.33659 -0.901143,-3.69502 -2.554164,-9.88219 -3.67338,-13.74926 -1.731973,-5.98424 -1.398012,-8.34675 2.243124,-15.86834 2.352935,-4.86051 6.137407,-9.8131 8.409939,-11.00575 2.272532,-1.19265 6.969188,-4.63309 10.437014,-7.64543 4.813649,-4.18139 8.241792,-5.47698 14.492161,-5.47698 4.502862,0 9.130814,0.94379 10.284338,2.09731 1.516757,1.51676 3.182093,1.51676 6.016182,0 2.155378,-1.15352 5.703197,-2.09731 7.884042,-2.09731 2.180844,0 3.965173,-0.77136 3.965173,-1.71413 0,-2.34492 -5.653024,-4.336084 -8.069809,-2.84243 -1.080693,0.66791 -8.749951,1.06953 -17.042797,0.89251 -14.478711,-0.30908 -15.328171,-0.0824 -21.375655,5.70402 -3.463767,3.31424 -8.457184,7.16273 -11.096485,8.5522 -7.318828,3.85304 -12.237645,17.89181 -10.668676,30.44941 2.016224,16.13732 6.160229,22.41479 19.306388,29.24596 13.572131,7.05252 14.396186,7.27878 14.396186,3.95265 z m 198.036361,-0.63727 c 2.53538,-2.29448 3.50209,-5.89279 3.48086,-12.95656 -0.0351,-11.65859 -0.80211,-12.92556 -9.70435,-16.02842 -9.09636,-3.17053 -16.14567,-3.0198 -18.98886,0.40603 -3.2873,3.96096 -0.81108,6.8023 5.92818,6.8023 8.76866,0 13.19696,3.17423 13.19696,9.45963 0,3.10535 -1.24932,5.96498 -2.87924,6.59044 -1.58358,0.60768 -2.87923,2.85952 -2.87923,5.00409 0,4.87822 6.79565,5.2927 11.84568,0.72249 z m 171.30581,-7.23932 c 8.6733,-17.76807 2.25715,-42.4247 -14.01596,-53.86186 -7.15037,-5.02547 -9.87307,-5.76952 -21.13638,-5.77604 -11.36575,-0.007 -15.11788,1.03605 -31.03703,8.6245 -16.16125,7.70386 -19.56724,8.6326 -31.67693,8.63771 -11.9671,0.005 -14.54293,-0.67394 -21.82356,-5.75274 -16.08407,-11.21987 -17.05128,-11.66754 -19.63223,-9.0866 -1.88583,1.88581 -0.8565,3.92828 5.00459,9.93059 17.79348,18.22216 40.20335,20.14171 69.65299,5.96621 28.59622,-13.7647 44.14307,-12.10371 54.15652,5.78597 5.62941,10.0573 6.13575,22.90659 1.26911,32.20525 -1.84559,3.52638 -2.86386,7.69313 -2.26281,9.25945 1.88231,4.90521 7.66814,1.92094 11.50169,-5.93244 z m -189.50399,3.43694 c 3.27678,-8.53916 -8.30549,-13.29296 -23.16178,-9.50646 -7.59043,1.93461 -9.9753,3.4449 -10.44867,6.61694 -0.51177,3.42928 0.34772,4.11017 5.18829,4.11017 3.1909,0 8.03363,-1.01696 10.76161,-2.25991 4.11781,-1.8762 5.5066,-1.71325 8.1796,0.95975 4.08276,4.08276 7.93238,4.11505 9.48095,0.0795 z M 47.889078,162.22483 c 0,-1.05572 -1.14509,-1.91949 -2.544643,-1.91949 -1.399553,0 -4.42591,-2.00251 -6.725236,-4.45003 -3.723683,-3.96368 -4.046129,-5.79932 -2.950284,-16.79556 1.415096,-14.19975 2.698395,-16.43424 10.411292,-18.12828 5.580138,-1.2256 8.876262,-4.10535 6.928418,-6.05319 -1.729274,-1.72927 -14.064163,3.13433 -17.456804,6.88315 -1.762203,1.94722 -3.529421,6.88139 -3.927148,10.96482 -0.397728,4.08344 -1.331822,9.85905 -2.075763,12.83469 -1.125119,4.50029 -0.278887,6.51806 5.031331,11.99682 6.067125,6.25968 13.308837,8.79917 13.308837,4.66707 z m 247.614402,-2.67387 c 0,-4.04496 -4.47915,-4.97911 -17.87591,-3.7281 -13.29803,1.24178 -21.14295,-1.24225 -19.27732,-6.104 0.60149,-1.56748 0.11033,-2.84996 -1.09148,-2.84996 -3.87908,0 -4.54611,5.79494 -1.10473,9.59762 2.70403,2.9879 6.51869,3.81809 19.90761,4.33252 9.10942,0.35 17.21043,0.81399 18.00222,1.03108 0.79179,0.21709 1.43961,-0.80853 1.43961,-2.27916 z M 111.22666,143.50681 c 7.22747,-3.61356 9.67463,-8.89959 4.95797,-10.70954 -1.60275,-0.61504 -5.31618,0.13473 -8.25207,1.66614 -7.52842,3.92696 -13.47962,3.48256 -15.982145,-1.19345 -5.114848,-9.55718 -33.09867,-13.12134 -42.842731,-5.45666 -2.781675,2.18807 -5.057589,5.23838 -5.057589,6.77847 0,4.28863 5.490644,5.43654 9.340219,1.95273 3.887162,-3.51784 18.255143,-4.20191 26.045415,-1.24006 2.951679,1.12223 4.923688,3.36452 4.923688,5.59852 0,2.04959 1.079714,4.16221 2.399364,4.6947 5.350187,2.15885 18.156919,1.06447 24.467879,-2.09085 z m 144.74342,-31.04294 c 9.04864,-5.63134 30.90414,-7.5136 47.21137,-4.06599 5.80646,1.22758 12.79406,2.68952 15.52802,3.24876 3.53006,0.72208 6.56874,-0.35771 10.48403,-3.7255 l 5.51322,-4.74228 -5.04191,-7.618845 C 318.64136,78.902454 282.71144,69.356205 259.5801,76.939156 c -22.01683,7.217595 -42.77577,21.668251 -42.77577,29.776964 0,1.92863 3.93041,6.50768 8.73425,10.17568 l 8.73422,6.66908 7.11041,-3.22205 c 3.91073,-1.77212 10.47482,-5.31586 14.58687,-7.87496 z m 88.74604,-1.10556 c -0.77526,-2.02032 0.16546,-2.89197 3.15374,-2.92192 2.34224,-0.0235 6.30739,-1.6182 8.81145,-3.54384 5.42707,-4.17348 3.87023,-5.143297 -11.53755,-7.187212 -7.24825,-0.961514 -9.54457,-0.722278 -8.5478,0.890533 0.7496,1.212879 2.58047,2.205239 4.06861,2.205239 2.98519,0 1.70873,5.68246 -1.83252,8.15783 -1.38543,0.96845 -1.11714,2.05824 0.81974,3.32972 4.19779,2.75567 6.32858,2.36423 5.06433,-0.93035 z M 164.97089,84.005555 c -0.009,-10.905753 -6.49015,-23.542721 -10.18175,-19.851126 -1.72792,1.727922 -1.72615,2.582956 0.007,3.654443 3.27055,2.02127 6.34245,11.088693 6.34245,18.721006 0,3.626294 0.86377,6.593261 1.91949,6.593261 1.05572,0 1.91626,-4.102913 1.91232,-9.117584 z m -72.657196,-9.01366 c 2.064394,-7.719055 8.243216,-13.563651 19.424346,-18.373643 8.15481,-3.508105 11.76681,-3.976861 22.36517,-2.902487 11.21496,1.136881 20.72342,2.974565 31.35472,6.059872 2.07113,0.60106 3.35911,-0.06224 3.35911,-1.72991 0,-3.925767 -11.70137,-6.786108 -33.5911,-8.211175 -18.62405,-1.212466 -19.50848,-1.084074 -29.7385,4.317178 -11.275312,5.953147 -19.208532,15.493377 -19.208532,23.099551 0,6.239547 4.180398,4.674434 6.034786,-2.259386 z M 226.46982,73.448351 c 0.0712,-6.532749 2.06823,-10.926365 8.73052,-19.208029 3.61039,-4.487944 5.47926,-5.024373 19.19491,-5.509563 17.93343,-0.634393 38.62261,2.736965 48.86626,7.96289 4.02884,2.055355 12.63053,8.152192 19.11489,13.54853 6.48435,5.396337 12.37618,9.205182 13.09295,8.464097 1.91798,-1.983059 -20.00724,-21.341312 -29.22543,-25.803755 -13.00524,-6.295735 -38.10845,-10.20786 -58.72772,-9.152228 -18.52611,0.948471 -24.95339,2.347058 -24.95339,5.429906 0,0.94277 1.71485,1.714127 3.81076,1.714127 3.79991,0 3.79992,0.01785 0.008,6.238347 -3.97434,6.517578 -5.32419,22.554026 -1.89895,22.554026 1.05572,0 1.95011,-2.807257 1.98752,-6.238348 z M 338.8481,62.952305 c -13.03452,-12.132501 -27.47933,-19.782003 -50.45328,-26.71842 -14.83485,-4.479011 -20.38087,-5.122052 -45.67735,-5.296109 -21.79418,-0.149951 -29.95874,0.471323 -33.5911,2.556117 -7.67943,4.40761 -53.73316,5.095195 -82.07836,1.225438 -23.99745,-3.276194 -27.635411,-2.875446 -33.042659,3.63989 -4.02935,4.85507 -0.789767,5.622787 6.088909,1.442951 4.91641,-2.987464 7.41641,-3.438595 11.13804,-2.009881 2.6393,1.013217 21.64227,2.321971 42.22881,2.908343 31.17394,0.887937 40.47795,0.490209 55.66526,-2.379576 26.75786,-5.056154 38.52062,-5.427311 58.18813,-1.836048 32.90468,6.008358 53.70043,15.382579 71.24293,32.114571 5.72984,5.465113 10.02289,8.295156 10.48417,6.911314 0.42964,-1.288883 -4.15745,-6.94025 -10.1935,-12.55859 z"
     id="path5274"
     inkscape:connector-curvature="0" />
  <path
     style="fill:#ffffff;stroke-width:1.91949153"
     d="m 76.714646,365.50941 c -5.788203,-1.00923 -13.854999,-4.14334 -17.926212,-6.96468 -9.510055,-6.59048 -22.183715,-20.86839 -25.54862,-28.78261 -3.513412,-8.2635 -3.313987,-25.40475 0.523044,-44.95765 4.351768,-22.17593 4.401515,-67.53079 0.09191,-83.78633 C 32.094311,194.37788 26.122032,180.24585 20.583027,169.61365 11.648411,152.46352 10.433104,148.71786 9.8119056,136.41634 L 9.1117033,122.55032 22.91485,110.28281 C 40.527931,94.629226 45.969586,85.578605 45.969586,71.937909 c 0,-9.917189 0.361391,-10.630034 9.955649,-19.637598 6.079766,-5.707986 17.066103,-12.805888 28.219671,-18.231781 l 18.264024,-8.884927 47.12037,-0.234445 c 26.62084,-0.132451 55.05351,-1.32083 65.35554,-2.731617 22.05928,-3.020855 56.08088,-1.661805 71.02119,2.83706 14.2097,4.278864 35.53272,15.181714 57.46583,29.383337 17.21074,11.143899 22.68593,13.389587 17.54632,7.196732 -4.14819,-4.998277 -45.19519,-29.787873 -57.81209,-34.914582 -6.76586,-2.749213 -17.93853,-6.193631 -24.82814,-7.65426 -14.47247,-3.068227 -46.79686,-3.430255 -66.27235,-0.742239 -7.39004,1.019978 -28.55243,2.258844 -47.02754,2.753036 l -33.5911,0.898532 35.51059,-4.658285 C 226.41143,9.5098316 296.822,6.5884326 327.98575,10.633174 c 18.70032,2.427111 27.88069,7.129253 44.83871,22.966169 10.93594,10.212956 15.62946,16.38785 21.31567,28.043356 4.01051,8.220639 10.22409,19.530498 13.80797,25.13302 l 6.51618,10.186403 h -15.33209 c -8.94174,0 -15.3321,0.800037 -15.3321,1.919492 0,1.05572 -1.72754,1.919496 -3.83898,1.919496 -2.11144,0 -3.83898,0.86377 -3.83898,1.91949 0,1.10047 5.93785,1.93192 13.91631,1.94863 20.6606,0.0433 28.62194,3.06866 37.02085,14.06837 l 7.05239,9.23624 -0.68348,21.5306 c -0.79872,25.16127 -3.06103,30.21216 -16.11939,35.98849 -10.09299,4.46461 -13.24098,8.17469 -5.35705,6.3136 9.33209,-2.20295 19.5253,-8.83254 21.58081,-14.036 4.47222,-11.32128 6.3757,-24.16684 5.51498,-37.21768 -0.76551,-11.60756 -1.92239,-15.32624 -7.17575,-23.06601 -3.4447,-5.07507 -5.71855,-9.77194 -5.053,-10.43748 1.99619,-1.99621 18.20632,15.16311 22.28637,23.59138 5.39469,11.14395 5.06811,27.86014 -0.7858,40.22181 -5.61998,11.86768 -16.39847,22.3807 -25.58974,24.95951 -3.82263,1.07252 -7.3376,3.11215 -7.81105,4.53249 -0.62016,1.86049 0.27593,2.22168 3.20527,1.29194 5.4203,-1.72035 5.12967,-0.0545 -1.44632,8.28942 -3.03182,3.84693 -9.29416,13.78085 -13.91631,22.07536 -15.99607,28.70515 -43.66521,50.15743 -102.69798,79.62325 -46.6716,23.29583 -67.50265,31.99155 -88.08374,36.76971 -9.48713,2.20255 -26.7508,7.15446 -38.36373,11.00425 -20.58374,6.82366 -21.93452,7.01134 -53.74576,7.46774 -17.94725,0.25748 -37.36716,-0.35758 -43.155364,-1.36681 z m 82.504944,-33.33013 c 46.46089,-4.34767 90.20239,-13.08878 122.84052,-24.54791 17.40474,-6.11076 51.21937,-22.39298 69.95084,-33.68232 20.42207,-12.30826 8.03492,-8.56452 -20.2533,6.12109 -15.18905,7.88529 -34.41005,17.01784 -42.71335,20.29459 -19.47946,7.68722 -60.96121,18.09128 -91.43488,22.93282 -27.74224,4.40759 -94.66253,8.84563 -105.150098,6.97337 -3.927088,-0.70105 -13.834386,-5.28301 -22.016219,-10.18211 -13.664411,-8.18193 -14.876059,-9.4143 -14.876059,-15.13047 0,-3.42268 -0.914459,-6.78821 -2.032133,-7.47897 -1.35043,-0.83462 -1.833366,1.83916 -1.439619,7.97042 l 0.592515,9.22636 16.315678,10.07879 16.315678,10.07881 22.074157,0.0649 c 12.14078,0.0357 35.4626,-1.18802 51.82627,-2.71929 z m 29.75211,-14.41037 c 34.43046,-1.89341 49.63832,-5.48128 85.51239,-20.1743 28.07387,-11.49825 64.94212,-30.36451 61.02632,-31.22842 -1.74989,-0.38606 -11.99529,3.72096 -22.76753,9.12673 -25.3718,12.73216 -56.33571,25.37207 -77.85807,31.78274 -15.37803,4.58053 -22.10986,5.30488 -66.13513,7.11631 -47.62881,1.95968 -49.39694,1.90051 -62.54656,-2.09357 -9.536236,-2.89653 -16.200951,-6.45944 -22.570041,-12.06573 -11.386283,-10.02261 -14.244777,-8.11379 -3.676156,2.45483 5.581446,5.58144 11.724314,9.19383 21.020317,12.36126 14.95616,5.09604 34.05446,5.68642 87.99446,2.72015 z m 13.35341,-13.32106 c 6.42951,-2.51471 -8.75101,-3.9755 -41.55262,-3.99849 -27.39189,-0.0192 -34.43514,1.00765 -30.93292,4.50986 1.73512,1.73513 67.9359,1.26808 72.48554,-0.51137 z m -2.20035,-11.7232 c 76.70182,-5.53051 122.77052,-30.58932 161.50582,-87.85021 7.2805,-10.76247 14.77095,-20.05491 16.64547,-20.64985 3.99033,-1.26649 7.03927,-9.01799 3.95187,-10.04712 -1.37526,-0.45842 -1.00597,-2.94943 1.08835,-7.34127 2.26095,-4.74128 4.02323,-6.28472 6.14573,-5.38255 6.40628,2.72298 11.75713,3.04155 14.3897,0.85672 3.81975,-3.17011 1.56868,-7.7635 -3.80463,-7.7635 -6.08386,0 -17.88822,-11.56528 -19.37087,-18.97855 -0.66601,-3.3301 -2.00097,-6.543 -2.96659,-7.13978 -2.88824,-1.78503 -7.57384,3.40994 -6.95872,7.71519 0.48229,3.37551 -2.48998,5.4216 -18.86107,12.98383 -90.6083,41.85437 -164.47885,57.38382 -221.50546,46.56607 -35.08678,-6.65585 -49.629028,-16.61993 -53.774554,-36.84532 -3.238348,-15.7994 -3.408309,-16.16841 -7.120644,-15.46 -2.182926,0.41656 -3.919312,3.33198 -4.94319,8.2997 -0.868051,4.21167 -3.459365,13.70399 -5.758474,21.09403 -3.47805,11.17951 -4.167247,17.95029 -4.103092,40.30932 0.113615,39.59886 6.494605,57.11432 23.91931,65.65722 14.443289,7.08122 47.174294,12.69274 91.173074,15.6311 2.11144,0.14108 15.76803,-0.60376 30.34797,-1.65503 z M 177.9874,189.94862 c 2.34635,-1.64345 4.26608,-4.26187 4.26608,-5.81872 0,-3.74503 -5.4412,-5.7147 -8.19088,-2.96503 -5.73731,5.73731 -17.53457,-1.91483 -23.5632,-15.28396 -3.60773,-8.00051 -3.60636,-8.12766 0.10956,-10.19765 2.06956,-1.15288 7.01302,-5.23366 10.98546,-9.06841 6.46497,-6.24088 7.22262,-7.98284 7.22262,-16.60595 0,-9.01206 0.44238,-9.89469 6.8558,-13.6787 4.51683,-2.665 6.62006,-5.18543 6.16481,-7.38769 -0.68939,-3.33488 -2.88081,-3.65426 -10.14137,-1.47804 -2.87244,0.86097 -4.80552,-0.35183 -7.67796,-4.81712 -11.04666,-17.172284 -51.51042,-22.112123 -69.394,-8.471654 -5.474219,4.175392 -6.138553,5.495247 -4.400553,8.742734 2.79343,5.21957 9.488294,7.44318 28.686493,9.52784 8.97363,0.97441 21.71425,3.27688 28.3125,5.1166 l 11.99683,3.34495 v 7.88432 c 0,7.87602 -2.69444,11.92537 -11.27628,16.9466 -7.28006,4.25957 -14.83318,9.76465 -21.84048,15.9184 -3.96199,3.47939 -8.61078,6.32617 -10.33064,6.32617 -4.48224,0 -16.285099,7.67523 -15.00012,9.75436 0.59435,0.96168 3.83887,0.27174 7.21005,-1.53321 3.37118,-1.80495 9.13675,-4.36009 12.81237,-5.6781 5.62017,-2.01528 6.93268,-1.95015 8.25322,0.40952 2.30917,4.12626 6.27802,3.41811 8.47936,-1.51295 1.85521,-4.15571 2.07677,-4.02881 5.865,3.35911 8.67275,16.91382 24.05722,24.54776 34.59533,17.16658 z M 48.851006,177.5843 c -0.73809,-1.19426 -6.214265,-4.50722 -12.169279,-7.36214 l -10.827295,-5.19076 -3.618467,-14.08148 -3.618467,-14.08148 4.216335,-8.4424 c 2.318985,-4.64331 6.097834,-9.43005 8.397442,-10.63719 2.299609,-1.20714 7.01842,-4.65944 10.486246,-7.67178 4.813649,-4.18139 8.241792,-5.47698 14.492161,-5.47698 4.502862,0 9.130814,0.94379 10.284338,2.09731 1.516757,1.51676 3.182093,1.51676 6.016182,0 2.155378,-1.15352 5.703197,-2.09731 7.884042,-2.09731 2.180844,0 3.965173,-0.77136 3.965173,-1.71413 0,-2.34492 -5.653024,-4.336084 -8.069809,-2.84243 -1.080693,0.66791 -8.794316,1.06859 -17.141382,0.8904 -14.376162,-0.30689 -15.452784,-0.0354 -20.41591,5.14728 -2.881684,3.00919 -7.645455,6.97017 -10.586162,8.80218 -2.940706,1.83201 -7.157995,7.05904 -9.371754,11.61563 -3.286747,6.76511 -3.78356,10.21725 -2.708605,18.8209 2.103326,16.83445 6.025614,22.54196 20.306334,29.54871 12.555532,6.16029 14.949767,6.67365 12.478877,2.67567 z m 199.692634,-0.79722 c 1.99159,-3.03953 2.83192,-7.82268 2.44361,-13.9089 -0.53999,-8.46393 -1.18012,-9.56296 -7.31004,-12.55056 -8.3313,-4.06051 -17.9731,-4.36453 -21.04463,-0.66356 -3.2873,3.96096 -0.81108,6.8023 5.92818,6.8023 3.17426,0 7.44213,0.89416 9.48417,1.98703 4.60526,2.46466 4.91998,11.10322 0.52168,14.31934 -4.08213,2.98492 -2.061,8.64702 3.08661,8.64702 2.12024,0 5.22093,-2.0847 6.89042,-4.63267 z m 169.96025,-5.26457 c 6.06686,-11.89204 5.56184,-27.40582 -1.30268,-40.01824 -5.92048,-10.87784 -11.38484,-15.50671 -22.60392,-19.14781 -10.67414,-3.46423 -22.21792,-1.25846 -42.30789,8.08415 -15.32903,7.12858 -19.09985,8.11367 -31.20057,8.15084 -13.12725,0.0403 -14.29993,-0.33525 -25.33948,-8.11556 -6.36638,-4.48681 -12.48122,-8.15784 -13.58852,-8.15784 -4.37448,0 -1.65188,7.59759 4.73086,13.20171 19.56065,17.17449 41.09353,17.73305 72.4971,1.88059 27.16888,-13.71482 46.42916,-7.09335 53.38883,18.3545 1.69795,6.20847 1.38927,9.56216 -1.76578,19.18508 -2.10288,6.41379 -3.4203,12.31368 -2.92761,13.11088 2.21934,3.59095 6.68438,0.79344 10.41966,-6.5283 z m -188.60653,1.62515 c 0.36322,-1.88611 -0.46584,-4.78636 -1.84241,-6.44501 -3.23394,-3.89666 -25.55269,-2.51533 -29.9198,1.85178 -6.143,6.143 3.55683,9.53729 13.85105,4.84694 4.12944,-1.8815 5.50769,-1.71216 8.2312,1.01134 3.99701,3.99703 8.78714,3.37102 9.67996,-1.26505 z M 47.889078,162.22483 c 0,-1.05572 -1.14509,-1.91949 -2.544643,-1.91949 -1.399553,0 -4.406805,-1.98218 -6.682781,-4.40484 -3.689347,-3.92713 -4.007843,-5.80014 -2.936736,-17.27036 1.26421,-13.53813 2.855453,-16.09716 11.436494,-18.39208 7.466296,-1.9968 8.85896,-6.98839 1.457796,-5.22504 -10.020243,2.38735 -15.028565,7.52986 -16.261471,16.69718 -0.624334,4.64227 -1.771004,10.70954 -2.548156,13.48283 -1.140988,4.07165 -0.237529,6.38113 4.693109,11.99682 5.700135,6.4921 13.386388,9.3831 13.386388,5.03498 z M 295.50348,159.3456 c 0,-3.21958 -1.67942,-3.48552 -18.53219,-2.93463 -13.00346,0.42505 -20.34035,-2.2117 -18.62104,-6.69211 0.60149,-1.56748 0.11033,-2.84996 -1.09148,-2.84996 -3.80182,0 -4.63792,5.92696 -1.30718,9.26643 2.28842,2.29442 7.97628,3.52653 19.93726,4.31886 9.20446,0.60972 17.38323,1.25755 18.17502,1.43962 0.79179,0.18206 1.43961,-0.96463 1.43961,-2.54821 z M 107.93024,145.11017 c 7.45077,-2.83278 11.50768,-7.76933 8.93371,-10.87077 -1.83838,-2.21511 -3.03354,-2.18334 -7.6489,0.20336 -7.53919,3.89867 -14.726273,3.57017 -17.054134,-0.77947 -4.362644,-8.15168 -29.718019,-12.81432 -40.244445,-7.40062 -6.449722,3.31706 -9.359794,8.36366 -6.482173,11.24128 1.730554,1.73056 3.385286,1.51882 7.087415,-0.90691 9.315636,-6.10384 31.837704,-3.05782 31.837704,4.30592 0,2.04959 1.079714,4.16221 2.399364,4.6947 4.074887,1.64425 16.305249,1.36264 21.171459,-0.48749 z m 170.29782,-38.06619 c 12.65339,-0.78202 21.19322,0.16516 40.48878,4.49076 3.6143,0.81025 6.48623,-0.18118 10.48261,-3.61871 l 5.50441,-4.73471 -4.72412,-6.924551 c -9.09764,-13.33517 -38.85897,-24.162895 -59.64737,-21.700817 -12.56405,1.488026 -39.16515,14.386788 -47.48003,23.02287 -7.94377,8.250668 -7.08499,12.455198 4.15234,20.329688 l 8.03482,5.63034 14.39619,-7.80256 c 12.25597,-6.64259 16.5364,-7.93484 28.79237,-8.69231 z m 66.48806,4.31433 c -0.68313,-1.78021 0.008,-2.87924 1.80945,-2.87924 1.60289,0 5.6108,-1.3944 8.90649,-3.09867 7.1538,-3.69937 5.1548,-5.444918 -8.58218,-7.494085 -6.23278,-0.929755 -9.11758,-0.683801 -9.11758,0.777352 0,1.175591 1.26855,2.137443 2.819,2.137443 3.08879,0 1.9032,5.6257 -1.71925,8.15783 -1.38543,0.96845 -1.11714,2.05824 0.81974,3.32972 4.19779,2.75567 6.32858,2.36423 5.06433,-0.93035 z M 164.97089,82.932526 c -0.007,-8.319254 -6.35018,-21.564003 -9.41859,-19.667619 -0.92877,0.574011 -0.0517,4.254488 1.94905,8.178839 2.00075,3.92435 3.63773,10.458608 3.63773,14.520571 0,4.434805 0.76687,6.911436 1.91949,6.199077 1.05572,-0.652472 1.91626,-4.806361 1.91232,-9.230868 z M 101.93692,61.87194 c 10.74711,-8.115268 19.79755,-9.809068 38.85887,-7.272479 9.1841,1.222175 18.93392,3.072096 21.66627,4.110935 5.35519,2.036037 7.47787,1.312183 5.5064,-1.877728 -3.24638,-5.252765 -45.77022,-9.831708 -55.77642,-6.005975 -15.255953,5.832912 -28.145702,20.594531 -24.898652,28.514482 1.021078,2.490529 2.10822,1.420454 4.774751,-4.699787 1.898957,-4.358499 6.33991,-10.104752 9.868781,-12.769448 z m 124.5329,11.576411 c 0.0712,-6.532749 2.06823,-10.926365 8.73052,-19.208029 3.61039,-4.487944 5.47926,-5.024373 19.19491,-5.509563 30.23374,-1.069517 49.85169,5.319718 69.73202,22.710539 5.4717,4.786508 10.5553,8.076042 11.29692,7.310077 1.99942,-2.065103 -18.36184,-19.793273 -28.96056,-25.215406 -19.51077,-9.981406 -73.65711,-13.707994 -81.73944,-5.625665 -2.69903,2.699035 -2.59786,2.984022 1.05937,2.984022 4.03763,0 4.03821,0.01017 0.41131,7.124081 -3.83948,7.530916 -4.95684,21.668292 -1.71257,21.668292 1.05572,0 1.95011,-2.807257 1.98752,-6.238348 z m 122.77943,0.672481 c 0,-3.362567 -20.6125,-20.504414 -31.82058,-26.462748 -6.25238,-3.323839 -19.57381,-8.445676 -29.60315,-11.381861 -16.14669,-4.727093 -21.42287,-5.34777 -46.0678,-5.419308 -20.68979,-0.06006 -29.06415,0.621363 -32.63135,2.65521 -7.69686,4.38837 -53.80915,5.06659 -82.07836,1.207206 -23.99745,-3.276194 -27.635411,-2.875446 -33.042659,3.63989 -4.02935,4.85507 -0.789767,5.622787 6.088909,1.442951 4.83311,-2.936843 7.4505,-3.42817 11.01608,-2.067897 2.57222,0.981305 21.1433,2.278657 41.26906,2.883003 30.72784,0.922709 39.51477,0.536675 54.82747,-2.408722 49.0562,-9.435953 101.0849,1.956618 129.33406,28.319894 9.78658,9.133263 12.70832,10.878801 12.70832,7.592382 z"
     id="path5276"
     inkscape:connector-curvature="0" />
  <path
     style="fill:#ffffff;stroke-width:1.91949153"
     d="M 74.595963,364.98021 C 63.254208,362.53857 52.973323,355.67271 42.078357,343.26402 29.97039,329.4738 28.010991,316.19312 33.492891,285.07229 37.284436,263.54763 37.309192,214.88914 33.535861,200.61466 32.000974,194.8082 26.198916,181.02524 20.642399,169.98586 11.955585,152.72737 10.433997,148.04462 9.7858718,136.5744 L 9.0321028,123.23456 24.657967,108.32624 C 41.72116,92.046604 45.969586,84.551589 45.969586,70.728583 c 0,-8.45026 0.686076,-9.725539 9.871621,-18.349383 C 61.6093,46.963829 73.21887,39.385041 83.769672,34.147352 l 18.056848,-8.963885 47.41157,-0.234377 c 26.86311,-0.132797 55.31482,-1.316667 65.64675,-2.731549 22.02797,-3.016569 56.05288,-1.66425 71.02119,2.822736 14.05576,4.213435 35.59278,15.119281 56.12758,28.42171 16.44578,10.653557 23.50366,13.738331 18.99028,8.300051 -2.98711,-3.599266 -37.27503,-24.832679 -51.12422,-31.659614 -6.33432,-3.12249 -16.26769,-7.124543 -22.07415,-8.893448 -14.11523,-4.300127 -52.21128,-5.898321 -73.90043,-3.10025 -9.50148,1.225767 -31.95953,2.595777 -49.90677,3.044466 l -32.63136,0.815798 35.51059,-4.645591 C 227.78359,9.3581253 299.58231,6.4185237 329.0919,10.682796 c 18.09172,2.614337 27.06099,7.347147 44.12585,23.283826 11.67983,10.907681 15.83885,16.435043 21.90529,29.112173 4.11848,8.606488 10.13058,19.535128 13.3602,24.28587 l 5.87205,8.637712 -15.2776,0.557501 c -8.40267,0.306627 -15.2776,1.386341 -15.2776,2.399364 0,1.013025 -1.72754,1.841868 -3.83898,1.841868 -2.11144,0 -3.83898,0.86377 -3.83898,1.91949 0,1.09833 5.79506,1.91949 13.5462,1.91949 22.16571,0 29.42183,2.69738 37.49863,13.9397 l 6.93644,9.65502 -0.67932,21.40011 c -0.79421,25.01841 -3.07292,30.08876 -16.11527,35.85801 -10.08357,4.46044 -13.25802,8.18869 -5.35705,6.29158 15.72904,-3.77671 22.30204,-11.15268 25.62302,-28.75326 3.49022,-18.49743 1.62929,-33.19749 -5.71325,-45.13063 -3.32991,-5.41179 -5.55449,-10.33951 -4.94351,-10.95049 1.91809,-1.91809 18.21288,15.48088 22.18715,23.69061 5.39469,11.14395 5.06811,27.86014 -0.7858,40.22181 -5.61998,11.86768 -16.39847,22.3807 -25.58974,24.95951 -3.82263,1.07252 -7.3376,3.11215 -7.81105,4.53249 -0.62016,1.86049 0.27593,2.22168 3.20527,1.29194 5.42306,-1.72121 5.17888,-0.6957 -2.38119,10.00082 -3.54601,5.01711 -9.94064,15.16841 -14.21032,22.55846 -9.58669,16.59289 -28.72124,35.33799 -50.6889,49.65722 -22.49755,14.66465 -101.37124,53.3176 -120.99795,59.29644 -17.04188,5.19141 -52.15554,15.27351 -72.5454,20.82978 -14.95685,4.07577 -65.558478,4.6821 -82.704127,0.991 z m 82.704127,-32.83897 c 65.61919,-5.83971 118.2302,-18.86596 159.87004,-39.5831 20.88936,-10.39313 43.59607,-23.47498 43.59607,-25.11672 0,-0.87345 -13.17251,5.01091 -29.27225,13.07632 -16.09973,8.06542 -36.6143,17.49384 -45.58792,20.95206 -20.30751,7.82601 -56.82238,16.85315 -88.29661,21.82849 -28.31472,4.47591 -92.78586,8.82899 -104.256214,7.03937 -4.418723,-0.6894 -14.72827,-5.28161 -22.910103,-10.20488 -13.655372,-8.21688 -14.876059,-9.46205 -14.876059,-15.17444 0,-3.42268 -0.863771,-6.75688 -1.919492,-7.40935 -1.170147,-0.72319 -1.919491,2.1582 -1.919491,7.38084 v 8.56718 l 16.795551,10.69652 16.795551,10.69652 20.154657,0.0349 c 11.08507,0.0192 34.40689,-1.23348 51.82627,-2.78368 z m 62.73196,-17.43582 c 24.19976,-4.21307 72.94055,-23.13884 103.26462,-40.09701 21.30846,-11.91637 12.4282,-10.0117 -15.71841,3.37134 -31.5546,15.00346 -50.96797,22.81128 -73.28158,29.47293 -14.67532,4.38128 -22.03133,5.16393 -65.47964,6.96668 -48.07124,1.99458 -49.19877,1.95444 -63.01671,-2.24296 -10.324074,-3.13609 -16.338805,-6.36548 -22.59328,-12.13065 -9.644483,-8.88999 -13.055506,-8.86853 -5.563692,0.0349 6.616109,7.86279 15.388907,13.07675 27.986652,16.63335 8.55113,2.41417 18.25309,2.73981 54.54932,1.83091 24.28157,-0.60802 51.2153,-2.33583 59.85272,-3.83958 z m -20.50314,-10.27014 c 7.73776,-2.20703 -9.98834,-4.00706 -39.46049,-4.00706 -26.34908,0 -34.06183,1.07231 -29.32228,4.07672 3.06651,1.94385 61.93253,1.88425 68.78277,-0.0697 z m 21.11441,-13.81533 c 34.50873,-4.07552 69.49818,-16.88849 92.38457,-33.83077 15.95623,-11.81205 35.24651,-32.3872 48.16752,-51.37579 6.46539,-9.50148 14.41233,-19.57975 17.65984,-22.39615 4.55118,-3.94698 5.38784,-5.65166 3.65021,-7.43701 -3.31533,-3.40635 2.82794,-15.88143 6.95654,-14.12658 6.49015,2.75863 11.77276,3.02858 14.52746,0.74239 3.52256,-2.92347 0.47567,-7.64917 -4.93179,-7.64917 -5.24514,0 -17.01138,-12.12813 -18.37347,-18.9386 -0.81563,-4.07808 -2.32018,-6.01479 -4.67265,-6.01479 -3.38773,0 -7.09218,6.87352 -4.89085,9.07485 1.45196,1.45196 -35.39748,18.38924 -67.24017,30.90591 -54.57863,21.45367 -98.49145,30.18606 -143.7012,28.57605 -53.96701,-1.92188 -78.282609,-13.42542 -83.628138,-39.56389 -3.102405,-15.17008 -3.262629,-15.55648 -6.450668,-15.55648 -1.754325,0 -3.685658,3.15806 -4.988979,8.15784 -1.169604,4.48681 -3.767208,13.77235 -5.772455,20.63453 -10.894335,37.28163 -4.043362,91.17752 13.142022,103.38693 10.756226,7.64178 51.052978,16.27047 84.818978,18.16219 14.62039,0.81908 43.86714,-0.45132 63.34323,-2.75146 z M 177.9874,189.94862 c 2.34635,-1.64345 4.26608,-4.26187 4.26608,-5.81872 0,-3.74503 -5.4412,-5.7147 -8.19088,-2.96503 -5.73731,5.73731 -17.53457,-1.91483 -23.5632,-15.28396 -3.59139,-7.96427 -3.59139,-8.13703 8e-5,-10.19765 2.00935,-1.15288 6.65399,-4.76108 10.32144,-8.01823 5.78765,-5.14016 6.78657,-7.35095 7.56549,-16.74366 0.81749,-9.8579 1.47488,-11.16227 7.38224,-14.6477 3.56666,-2.10438 6.48483,-5.26395 6.48483,-7.02127 0,-2.58844 -1.29451,-2.98505 -6.81766,-2.08877 -6.11136,0.99174 -7.51579,0.33361 -13.55644,-6.35266 -8.66826,-9.594734 -21.7093,-14.06107 -40.48816,-13.866524 -16.26074,0.168455 -29.870232,6.021627 -30.912435,13.294814 -0.864482,6.03291 7.364987,9.60009 27.688715,12.00205 9.38214,1.10883 22.45701,3.51241 29.05526,5.34128 l 11.99683,3.32523 v 8.03582 c 0,6.67199 -0.98268,8.79358 -5.79007,12.50067 -3.18453,2.45566 -8.2759,6.40833 -11.31416,8.7837 -3.03826,2.37537 -6.31753,4.31886 -7.28726,4.31886 -0.96974,0 -4.25899,2.60509 -7.30945,5.78909 -3.05047,3.184 -8.61064,6.64435 -12.35595,7.68968 -3.7453,1.04532 -8.96907,3.60365 -11.60837,5.68518 -4.490211,3.54127 -4.545744,3.78733 -0.86377,3.82726 2.16423,0.0235 4.75554,-0.76061 5.75848,-1.74241 1.00293,-0.98181 5.64998,-3.09376 10.32677,-4.69322 7.8024,-2.66843 8.7122,-2.63995 11.03835,0.34548 2.34736,3.01264 2.81261,2.92628 6.28232,-1.16616 l 3.74722,-4.41976 3.74267,7.299 c 8.47863,16.53513 23.96909,24.09443 34.40103,16.78761 z m 69.5288,-12.36785 c 4.45155,-4.45156 5.4384,-21.25978 1.43962,-24.52013 -5.2264,-4.26126 -18.53667,-6.88922 -23.48161,-4.63616 -6.38802,2.91058 -4.35985,8.04188 3.17863,8.04188 3.1236,0 7.35005,0.89416 9.39209,1.98703 4.60526,2.46466 4.91998,11.10322 0.52168,14.31934 -3.72374,2.72287 -2.23629,8.64702 2.17113,8.64702 1.61671,0 4.66702,-1.72754 6.77846,-3.83898 z M 48.197859,177.10089 c -1.30818,-1.31965 -6.879504,-4.55879 -12.380721,-7.19809 -10.486395,-5.03102 -10.821402,-5.61977 -16.170276,-28.41802 -3.018563,-12.86587 21.044215,-36.84469 36.973699,-36.84469 4.276878,0 8.812669,1.03652 10.079534,2.30339 1.791525,1.79152 2.815255,1.79152 4.606779,0 1.266865,-1.26687 4.72195,-2.30339 7.677967,-2.30339 2.956017,0 5.374576,-0.86377 5.374576,-1.91949 0,-1.83322 -4.558831,-2.85883 -8.637712,-1.94324 -1.05572,0.23698 -8.631349,0.30526 -16.834728,0.15174 -14.063047,-0.26319 -15.214594,0.0335 -20.154661,5.19211 -2.881684,3.00919 -7.695593,7.00302 -10.697574,8.87518 -8.150646,5.08308 -13.497285,18.65426 -11.948612,30.32873 2.030753,15.30857 6.156309,21.71647 18.184376,28.24436 11.38233,6.17745 18.285539,7.92782 13.927353,3.53142 z m 365.759771,0.86309 c 8.00656,-5.08821 10.67412,-30.45465 4.58206,-43.57177 -7.37047,-15.86974 -18.46607,-22.94586 -35.69934,-22.76696 -9.28558,0.0964 -14.97751,1.69167 -29.37818,8.23377 -28.37055,12.8885 -43.14441,12.66609 -60.21735,-0.90654 -9.39822,-7.47138 -13.09727,-8.30314 -13.09727,-2.94501 0,5.49669 14.66377,17.01063 26.35952,20.69739 13.48648,4.25124 29.64627,1.64924 50.07502,-8.06295 31.13179,-14.80058 48.94008,-9.41175 56.16386,16.99532 1.64506,6.01358 1.32608,9.69898 -1.69648,19.60139 -4.17091,13.66461 -3.4606,16.77275 2.90816,12.72536 z m -184.08026,-5.68229 c 0.89025,-6.02887 -5.95819,-8.81444 -18.49063,-7.52098 -10.69573,1.1039 -17.21778,4.96721 -14.85091,8.79688 1.67884,2.71641 9.19484,2.69399 15.20709,-0.0454 3.76877,-1.71717 5.6121,-1.52189 9.17214,0.97167 5.43598,3.8075 8.17427,3.13466 8.96231,-2.20219 z M 41.313,157.90598 l -7.215691,-6.23835 1.617283,-13.43644 c 1.570506,-13.04782 1.825471,-13.53817 8.815376,-16.95364 7.840109,-3.8309 9.885824,-8.10086 2.879237,-6.00974 -7.899639,2.35765 -12.884337,6.63821 -13.916417,11.95059 -0.56144,2.88987 -1.878728,8.96734 -2.927304,13.50547 -2.172563,9.40263 -0.759201,13.31891 7.013118,19.43261 8.41416,6.61858 11.701508,4.63749 3.734398,-2.2505 z m 254.19048,1.43962 c 0,-2.32134 -2.99989,-2.87924 -15.48211,-2.87924 -16.60436,0 -23.44327,-2.12936 -21.67112,-6.7475 0.60149,-1.56748 0.11033,-2.84996 -1.09148,-2.84996 -3.78194,0 -4.64571,5.9195 -1.34535,9.21985 2.22524,2.22525 8.13925,3.51434 19.93725,4.34579 9.22546,0.65015 17.42141,1.31893 18.2132,1.48619 0.79179,0.16726 1.43961,-0.99155 1.43961,-2.57513 z M 109.12583,143.84052 c 4.16278,-1.66562 8.05266,-4.28963 8.6442,-5.83114 1.49317,-3.89113 -3.8995,-5.52061 -9.62969,-2.90976 -7.33269,3.34099 -12.376055,2.61147 -17.086921,-2.47164 -4.891185,-5.27768 -15.576184,-8.76991 -26.848663,-8.7751 -12.491704,-0.006 -25.183026,10.0843 -18.150758,14.43048 1.102147,0.68116 4.094955,-0.13164 6.650687,-1.80621 9.156884,-5.99982 31.654732,-2.85428 31.654732,4.42581 0,2.04959 1.079714,4.16221 2.399364,4.6947 4.897982,1.97638 15.024249,1.18086 22.367049,-1.75714 z m 142.06994,-28.93719 c 10.57373,-5.8677 14.98575,-7.15393 27.03229,-7.88063 12.63045,-0.76194 19.50278,-0.009 40.30932,4.41678 3.32026,0.70624 6.5729,-0.42405 10.55721,-3.66862 l 5.75847,-4.68933 -5.94094,-7.378561 c -3.26753,-4.058207 -9.26111,-9.259522 -13.31906,-11.558476 -10.50838,-5.95332 -33.51582,-11.002571 -43.74545,-9.600446 -25.17204,3.450211 -57.84028,24.412681 -53.92909,34.605073 1.50857,3.93125 13.8875,12.76639 17.88703,12.76639 1.51477,0 8.44037,-3.15548 15.39022,-7.01218 z m 93.60156,-3.33338 c -0.66794,-1.74065 0.76143,-3.05653 4.11351,-3.7869 7.40734,-1.61395 11.26304,-4.51608 8.96007,-6.74411 -2.99208,-2.894727 -20.13861,-4.917098 -20.13861,-2.375273 0,1.175591 1.26855,2.137443 2.819,2.137443 3.08879,0 1.9032,5.6257 -1.71925,8.15783 -1.38543,0.96845 -1.11714,2.05824 0.81974,3.32972 4.10758,2.69645 6.33661,2.38511 5.14554,-0.71871 z M 164.97806,84.423775 c 0,-7.838122 -4.62311,-20.093008 -7.58002,-20.093008 -2.57983,0 -2.56546,0.139042 0.8618,8.341643 1.58358,3.790042 2.87924,9.510042 2.87924,12.711111 0,3.201071 0.86377,5.820127 1.91949,5.820127 1.05572,0 1.91949,-3.050942 1.91949,-6.779873 z M 92.767701,73.22151 c 3.136924,-7.507717 12.543639,-15.119472 22.707309,-18.374366 8.09841,-2.593498 29.96134,-1.110136 43.65501,2.961916 4.70148,1.398067 8.89089,2.199198 9.30979,1.780292 5.94011,-5.940105 -40.26572,-13.270163 -54.62724,-8.666025 -12.92054,4.142177 -27.501796,18.107652 -27.526487,26.364007 -0.01401,4.701469 3.824476,2.29361 6.481618,-4.065824 z M 226.46982,72.375323 c 0.0722,-5.482757 2.30991,-10.155872 8.61156,-17.98377 3.2666,-4.057751 5.99302,-4.99035 17.225,-5.891946 15.35882,-1.232857 40.42331,2.831252 51.1394,8.292055 3.84043,1.957027 12.40508,7.910083 19.03259,13.229011 6.62752,5.318928 12.55495,9.148963 13.17211,8.511189 1.66794,-1.7237 -18.66537,-19.136039 -28.78873,-24.653113 -16.02655,-8.734199 -64.58509,-13.496591 -79.02034,-7.749935 -4.13042,1.644313 -4.41917,4.765512 -0.44087,4.765512 2.44977,0 2.29571,1.220299 -0.95975,7.601497 -4.0135,7.867115 -5.41736,22.368822 -1.95849,20.23113 1.05572,-0.652472 1.95011,-3.510704 1.98752,-6.35163 z M 347.42013,72.177606 C 340.70651,59.633105 310.9562,42.360578 283.98654,35.349149 c -19.31813,-5.022223 -63.81129,-6.068275 -73.90043,-1.737428 -9.17039,3.936469 -57.71368,4.690335 -83.28977,1.293475 -22.29279,-2.960793 -27.949181,-2.379997 -32.712007,3.358856 -4.08598,4.923304 -0.936342,5.75445 6.009927,1.585938 4.92488,-2.955464 7.62414,-3.425576 12.09778,-2.106995 3.16716,0.933502 21.30636,2.208676 40.30933,2.83372 28.94619,0.952097 37.66454,0.557783 53.74576,-2.430811 50.2563,-9.339822 101.93594,1.917812 130.2938,28.382546 10.45029,9.752658 14.08557,11.640321 10.8792,5.649156 z"
     id="path5278"
     inkscape:connector-curvature="0" />
  <path
     style="fill:#ffffff;stroke-width:1.91949153"
     d="m 279.58507,257.39642 c -0.59405,-3.66074 -2.85665,-9.08055 -5.028,-12.04403 -5.45725,-7.44811 -3.54833,-13.25113 5.31302,-16.15134 3.84763,-1.25928 13.36586,-5.18317 21.15163,-8.71977 7.78577,-3.5366 14.48,-6.43017 14.87606,-6.43017 0.39606,0 0.72011,2.47482 0.72011,5.49961 0,3.02479 1.78437,7.76808 3.96528,10.54064 l 3.96527,5.04103 -5.40489,4.83381 c -7.56843,6.76875 -29.54473,21.35549 -34.41833,22.84513 -3.47997,1.06367 -4.21436,0.29002 -5.14015,-5.41491 z"
     id="path5280"
     inkscape:connector-curvature="0" />
  <path
     style="fill:#ffffff;stroke-width:1.91949153"
     d="m 215.24384,265.39266 -0.60074,-15.83096 21.86252,-7.19809 c 12.02438,-3.95896 22.44403,-7.1981 23.15477,-7.1981 0.71074,0 1.29225,3.28233 1.29225,7.29407 0,4.01174 1.00877,8.30284 2.24172,9.53579 4.02055,4.02055 7.13448,15.52583 4.71753,17.4302 -4.92304,3.87895 -36.4371,11.81266 -46.88318,11.80289 -5.16444,-0.005 -5.1864,-0.0649 -5.78487,-15.8358 z"
     id="path5282"
     inkscape:connector-curvature="0" />
  <path
     style="fill:#ffffff;stroke-width:1.91949153"
     d="m 330.74292,222.67436 c -0.61072,-1.59153 -0.54338,-5.91622 0.14966,-9.61043 1.06131,-5.65728 2.78376,-7.48885 10.92003,-11.61181 5.31298,-2.69229 10.53998,-4.60174 11.61556,-4.24321 2.06251,0.6875 -17.49649,28.29462 -20.07497,28.33542 -0.82492,0.013 -1.99955,-1.27844 -2.61028,-2.86997 z"
     id="path5284"
     inkscape:connector-curvature="0" />
  <path
     style="fill:#ffffff;stroke-width:1.91949153"
     d="m 330.94285,180.20116 0.17846,-10.95431 20.10105,-9.17234 c 11.05557,-5.04478 21.08834,-9.21605 22.29504,-9.26948 4.18255,-0.18519 4.1878,5.19611 0.014,14.28093 -3.96444,8.62888 -5.13924,9.54352 -21.43633,16.68927 -9.48311,4.15804 -18.16197,7.96961 -19.28636,8.47015 -1.32431,0.58955 -1.98148,-2.9481 -1.86587,-10.04422 z"
     id="path5286"
     inkscape:connector-curvature="0" />
  <path
     style="fill:#ffffff;stroke-width:1.91949153"
     d="m 265.85722,207.81276 c -0.40337,-1.31965 -1.20068,-5.11787 -1.77181,-8.44049 -0.95649,-5.56448 -0.55311,-6.13796 5.1125,-7.26837 3.383,-0.67499 16.08428,-4.9883 28.22507,-9.58514 12.14078,-4.59685 22.37443,-7.55135 22.74144,-6.56558 1.46312,3.92994 -2.07387,11.70858 -8.61733,18.9514 -5.32396,5.893 -8.30277,7.62958 -13.08723,7.62958 -3.4069,0 -11.21555,1.72754 -17.35256,3.83898 -13.09359,4.50485 -14.27894,4.61675 -15.25008,1.43962 z"
     id="path5288"
     inkscape:connector-curvature="0" />
  <path
     style="fill:#ffffff;stroke-width:1.91949153"
     d="m 205.64418,215.75087 c 0.56559,-7.89641 1.01921,-8.50837 7.32117,-9.87684 3.69502,-0.80237 13.84433,-3.05595 22.55402,-5.00794 8.7097,-1.952 15.87343,-3.02305 15.91941,-2.38013 0.046,0.64293 0.77962,4.76267 1.63033,9.15499 l 1.54674,7.98603 -10.74792,2.9495 c -5.91136,1.62223 -17.06565,3.54415 -24.78731,4.27094 l -14.03939,1.32143 z"
     id="path5290"
     inkscape:connector-curvature="0" />
  <path
     style="fill:#ffffff;stroke-width:1.91949153"
     d="m 163.05857,223.0095 c 0,-1.49603 0.53986,-5.41933 1.19968,-8.71846 l 1.19968,-5.99841 h 14.26662 14.26662 l -0.59024,8.15784 -0.59024,8.15784 -14.87606,0.56061 c -11.8203,0.44546 -14.87606,0.002 -14.87606,-2.15942 z"
     id="path5292"
     inkscape:connector-curvature="0" />
  <path
     style="fill:#ffffff;stroke-width:1.91949153"
     d="m 121.12693,222.26997 c -3.61542,-0.68732 -4.24616,-1.67497 -3.20414,-5.0172 0.71357,-2.28878 1.77643,-6.18949 2.36189,-8.66826 0.91484,-3.87326 1.89074,-4.3416 6.94181,-3.33139 3.23253,0.64651 10.50248,1.71906 16.15544,2.38346 7.85439,0.92313 10.02833,1.8589 9.2189,3.96825 -0.58257,1.51814 -1.05921,4.84904 -1.05921,7.40199 0,4.4767 -0.46068,4.63245 -12.95657,4.38034 -7.12611,-0.14377 -14.98227,-0.6465 -17.45812,-1.11719 z"
     id="path5294"
     inkscape:connector-curvature="0" />
  <path
     style="fill:#ffffff;stroke-width:1.91949153"
     d="m 98.518537,218.27092 c -6.027482,-0.86463 -9.041498,-8.89323 -6.243464,-16.63106 l 2.259305,-6.24799 7.389212,2.90256 c 8.36235,3.28483 8.74298,4.60528 4.00993,13.9112 -2.47955,4.87519 -4.45378,6.49007 -7.414983,6.06529 z"
     id="path5296"
     inkscape:connector-curvature="0" />
  <path
     style="fill:#ffffff;stroke-width:1.91949153"
     d=""
     id="path5298"
     inkscape:connector-curvature="0" />
  <path
     style="fill:#ffffff;stroke-width:1.91949153"
     d=""
     id="path5302"
     inkscape:connector-curvature="0" />
  <path
     style="fill:#ffffff;stroke-width:1.91949153"
     d="m 232.64014,109.8585 c -5.68752,-2.58914 -5.46438,-3.91326 1.67134,-9.917571 5.91421,-4.976475 15.03803,-9.559998 25.0733,-12.596039 4.59814,-1.39111 5.36991,-0.92836 7.19809,4.315962 2.63846,7.568703 2.74891,7.216168 -2.27112,7.249059 -2.37537,0.01557 -6.14522,1.095279 -8.37743,2.399369 -16.17232,9.44806 -19.02215,10.49398 -23.29418,8.54922 z"
     id="path5304"
     inkscape:connector-curvature="0" />
  <path
     style="fill:#ffffff;stroke-width:1.91949153"
     d="m 312.25422,99.94224 c -5.71016,-1.673491 -6.74597,-2.619624 -4.8947,-4.470899 3.58309,-3.58309 8.87881,-2.805043 11.26585,1.655179 2.76059,5.15822 2.30651,5.3589 -6.37115,2.81572 z"
     id="path5306"
     inkscape:connector-curvature="0" />
  <path
     style="fill:#ffffff;stroke-width:1.91949153"
     d="m 104.5057,100.78755 c -1.41758,-2.29369 0.86381,-3.14074 12.71992,-4.722754 7.84484,-1.04677 8.9913,-0.729859 9.89763,2.735948 0.94581,3.616766 0.15723,3.919856 -10.1989,3.919856 -6.17318,0 -11.76157,-0.86987 -12.41865,-1.93305 z"
     id="path5308"
     inkscape:connector-curvature="0" />
</svg>
